<?xml version="1.0" encoding="UTF-8" standalone="no"?>
<!-- Created with Inkscape (http://www.inkscape.org/) -->

<svg
   xmlns:dc="http://purl.org/dc/elements/1.1/"
   xmlns:cc="http://creativecommons.org/ns#"
   xmlns:rdf="http://www.w3.org/1999/02/22-rdf-syntax-ns#"
   xmlns:svg="http://www.w3.org/2000/svg"
   xmlns="http://www.w3.org/2000/svg"
   xmlns:sodipodi="http://sodipodi.sourceforge.net/DTD/sodipodi-0.dtd"
   xmlns:inkscape="http://www.inkscape.org/namespaces/inkscape"
   width="1000"
   height="1300"
   viewBox="0 0 264.58446 343.95831"
   version="1.1"
   id="svg5116"
   inkscape:version="0.92.2 (5c3e80d, 2017-08-06)"
   sodipodi:docname="ia11.svg">
  <defs
     id="defs5110" />
  <sodipodi:namedview
     id="base"
     pagecolor="#ffffff"
     bordercolor="#666666"
     borderopacity="1.0"
     inkscape:pageopacity="0.0"
     inkscape:pageshadow="2"
     inkscape:zoom="0.19518748"
     inkscape:cx="522.19676"
     inkscape:cy="706.53837"
     inkscape:document-units="mm"
     inkscape:current-layer="layer1"
     showgrid="false"
     fit-margin-top="0"
     fit-margin-left="0"
     fit-margin-right="0"
     fit-margin-bottom="0"
     inkscape:window-width="1366"
     inkscape:window-height="745"
     inkscape:window-x="-8"
     inkscape:window-y="-8"
     inkscape:window-maximized="1"
     units="px" />
  <metadata
     id="metadata5113">
    <rdf:RDF>
      <cc:Work
         rdf:about="">
        <dc:format>image/svg+xml</dc:format>
        <dc:type
           rdf:resource="http://purl.org/dc/dcmitype/StillImage" />
        <dc:title></dc:title>
      </cc:Work>
    </rdf:RDF>
  </metadata>
  <g
     inkscape:label="Layer 1"
     inkscape:groupmode="layer"
     id="layer1"
     transform="translate(-63.140337,212.42139)">
    <g
       aria-label="i"
       transform="matrix(3.2633004,0,0,3.2618213,-118.29196,-447.98561)"
       style="font-style:normal;font-variant:normal;font-weight:400;font-size:12.11863613px;line-height:125%;font-family:Orbitron;text-align:start;letter-spacing:0px;word-spacing:0px;text-anchor:start;fill:#000000;fill-opacity:1;stroke:none;stroke-width:0.08109714"
       id="text822">
      <path
         d="m 63.437222,129.05161 v -7.02881 h 0.993728 v 7.02881 z m 0,-9.33135 h 0.993728 v 0.99372 h -0.993728 z"
         style="font-style:normal;font-variant:normal;font-weight:400;font-size:12.11863613px;font-family:Orbitron;fill:#363535;stroke-width:0.08109714"
         id="path2081"
         inkscape:connector-curvature="0" />
    </g>
    <path
       id="path830"
       d="m 102.02779,-49.526814 h 14.91148 c 1.06959,0 1.9503,0.37884 2.64253,1.13827 0.7551,0.69369 1.13239,1.57939 1.13239,2.65279 v 18.69343 h -2.57958 v -8.21026 h -17.3023 v 8.21026 h -2.516689 v -18.69343 c 0,-1.07426 0.314495,-1.95859 1.069939,-2.65279 0.69231,-0.75943 1.573,-1.13827 2.6425,-1.13827 z m -1.19553,11.74685 h 17.30231 v -7.95752 c 0,-0.31311 -0.12628,-0.63141 -0.37746,-0.82343 -0.18769,-0.25429 -0.5034,-0.37711 -0.8179,-0.37711 h -14.9114 c -0.3145,0 -0.5662,0.12109 -0.8179,0.37711 -0.25135,0.18164 -0.37746,0.50513 -0.37746,0.82343 z m 45.74099,-9.15772 h -18.6236 c -0.31449,0 -0.62916,0.12109 -0.81789,0.37885 -0.25152,0.18164 -0.37746,0.50513 -0.37746,0.8217 v 14.90409 c 0,0.37885 0.12628,0.63141 0.37746,0.88398 0.18787,0.25429 0.5034,0.38057 0.81789,0.38057 h 18.62358 v 2.52634 h -18.62358 c -1.00697,0 -1.88752,-0.37884 -2.64253,-1.07426 -0.7551,-0.75942 -1.13239,-1.6434 -1.13239,-2.65262 v -14.96724 c 0,-1.07426 0.37746,-1.95858 1.13239,-2.65279 0.75493,-0.75943 1.63561,-1.13481 2.64253,-1.13481 h 18.62358 z m 2.0762,-2.58913 h 22.39859 v 2.58913 h -9.94095 v 19.89381 h -2.51669 v -19.89381 h -9.94095 z m 44.48263,18.69325 v -18.69325 h 2.51669 v 18.75657 c 0,1.01026 -0.3145,1.89406 -1.06977,2.65227 -0.69213,0.69369 -1.63561,1.07427 -2.64253,1.07427 h -14.91136 c -1.06994,0 -1.95062,-0.38058 -2.64256,-1.07427 -0.75527,-0.75942 -1.13239,-1.6434 -1.13239,-2.65227 v -18.75657 h 2.57966 v 18.69325 c 0,0.37885 0.12628,0.63141 0.31449,0.88225 0.25153,0.25429 0.5662,0.37885 0.88104,0.37885 h 14.91139 c 0.3145,0 0.56672,-0.1211 0.8179,-0.37885 0.2517,-0.2543 0.37798,-0.5034 0.37798,-0.88225 z m 9.75217,-18.69325 h 14.91146 c 1.0068,0 1.88753,0.37884 2.64256,1.13827 0.75527,0.69369 1.06959,1.57939 1.06959,2.65279 v 18.69343 h -2.51662 v -8.21026 h -17.30228 v 8.21026 h -2.57967 v -18.69343 c 0,-1.07426 0.37729,-1.95859 1.06977,-2.65279 0.75527,-0.75943 1.63561,-1.13827 2.70542,-1.13827 z m -1.19553,11.74685 h 17.3023 v -7.95752 c 0,-0.31311 -0.12628,-0.63141 -0.37747,-0.82343 -0.2517,-0.25429 -0.5034,-0.37711 -0.81789,-0.37711 H 202.8842 c -0.3145,0 -0.62916,0.12109 -0.88086,0.37711 -0.18787,0.18164 -0.3145,0.50513 -0.3145,0.82343 z m 22.20984,-11.74685 h 22.39857 v 2.58913 h -9.87795 v 19.89381 h -2.57965 v -19.89381 h -9.94094 z m 28.37574,0 h 14.97436 c 1.00698,0 1.88751,0.37884 2.64254,1.13827 0.69231,0.69369 1.06977,1.57939 1.06977,2.65279 v 14.96724 c 0,1.01199 -0.37781,1.89371 -1.06977,2.65262 -0.7551,0.69369 -1.63562,1.07426 -2.64254,1.07426 H 252.2743 c -1.00662,0 -1.8875,-0.37884 -2.64252,-1.07426 -0.6923,-0.75943 -1.06959,-1.6434 -1.06959,-2.65262 v -14.96724 c 0,-1.07426 0.37729,-1.95859 1.06959,-2.65279 0.75528,-0.75943 1.63562,-1.13827 2.64252,-1.13827 z m 0.064,19.95677 h 14.84851 c 0.37746,0 0.62916,-0.12109 0.88086,-0.37885 0.25188,-0.25429 0.37799,-0.50513 0.37799,-0.88398 v -14.90392 c 0,-0.31484 -0.12629,-0.63141 -0.37799,-0.8217 -0.25152,-0.25429 -0.5034,-0.37884 -0.88086,-0.37884 H 252.3383 c -0.37746,0 -0.62916,0.12109 -0.88086,0.37884 -0.25153,0.17991 -0.37747,0.50513 -0.37747,0.8217 v 14.90392 c 0,0.37885 0.12629,0.63142 0.37747,0.88398 0.2517,0.2543 0.5034,0.37885 0.88086,0.37885 z m 44.3568,-16.16744 v 6.5679 c 0,1.07426 -0.37781,1.95859 -1.06977,2.65228 -0.75527,0.75942 -1.63596,1.13827 -2.64255,1.13827 h -3.46007 l 7.04675,8.33637 h -3.335 l -6.98383,-8.33603 h -8.17919 c -0.18787,0 -0.5662,-0.0865 -1.19553,-0.12109 v 8.46265 h -2.57959 v -22.42395 h 18.68646 c 1.0068,0 1.88754,0.37885 2.64255,1.07427 0.69213,0.75942 1.0696,1.6434 1.0696,2.65227 z m -18.62358,7.76758 h 14.91145 c 0.31449,0 0.56654,-0.12109 0.81789,-0.31484 0.2517,-0.25083 0.3145,-0.5034 0.3145,-0.8217 v -6.5679 c 0,-0.37711 -0.064,-0.63141 -0.3145,-0.88224 -0.2517,-0.2543 -0.5034,-0.37885 -0.81789,-0.37885 h -14.91145 c -0.31449,0 -0.62933,0.12109 -0.81789,0.37885 -0.2517,0.25429 -0.37764,0.50513 -0.37764,0.88224 v 6.5679 c 0,0.31484 0.12628,0.56568 0.37764,0.8217 0.18787,0.17991 0.5034,0.31484 0.81789,0.31484 z"
       style="fill:#4a99d9;fill-opacity:1;fill-rule:nonzero;stroke:#000000;stroke-width:0.10000045;stroke-linecap:butt;stroke-linejoin:miter;stroke-miterlimit:4;stroke-dasharray:none;stroke-opacity:0"
       inkscape:connector-curvature="0" />
  </g>
</svg>
