<?xml version="1.0" encoding="UTF-8" standalone="no"?>
<svg
   xmlns:dc="http://purl.org/dc/elements/1.1/"
   xmlns:cc="http://creativecommons.org/ns#"
   xmlns:rdf="http://www.w3.org/1999/02/22-rdf-syntax-ns#"
   xmlns:svg="http://www.w3.org/2000/svg"
   xmlns="http://www.w3.org/2000/svg"
   xmlns:sodipodi="http://sodipodi.sourceforge.net/DTD/sodipodi-0.dtd"
   xmlns:inkscape="http://www.inkscape.org/namespaces/inkscape"
   class="icon"
   height="1333"
   viewBox="0 0 1000 2666"
   version="1.1"
   id="svg12013"
   sodipodi:docname="ia12.svg"
   width="1000"
   inkscape:version="0.92.2 (5c3e80d, 2017-08-06)">
  <metadata
     id="metadata12019">
    <rdf:RDF>
      <cc:Work
         rdf:about="">
        <dc:format>image/svg+xml</dc:format>
        <dc:type
           rdf:resource="http://purl.org/dc/dcmitype/StillImage" />
        <dc:title />
      </cc:Work>
    </rdf:RDF>
  </metadata>
  <defs
     id="defs12017">
    <pattern
       y="0"
       x="0"
       height="6"
       width="6"
       patternUnits="userSpaceOnUse"
       id="EMFhbasepattern" />
    <pattern
       y="0"
       x="0"
       height="6"
       width="6"
       patternUnits="userSpaceOnUse"
       id="EMFhbasepattern-8" />
  </defs>
  <sodipodi:namedview
     pagecolor="#ffffff"
     bordercolor="#666666"
     borderopacity="1"
     objecttolerance="10"
     gridtolerance="10"
     guidetolerance="10"
     inkscape:pageopacity="0"
     inkscape:pageshadow="2"
     inkscape:window-width="1366"
     inkscape:window-height="745"
     id="namedview12015"
     showgrid="false"
     inkscape:zoom="0.26240291"
     inkscape:cx="-141.80724"
     inkscape:cy="500.75689"
     inkscape:window-x="-8"
     inkscape:window-y="-8"
     inkscape:window-maximized="1"
     inkscape:current-layer="svg12013" />
  <path
     id="path1616"
     d="m -195.04985,784.664 39.106,-114.55836 645.8279,-61.578 423.9189,84.35016 c 0,0 121.25165,31.6024 156.42415,63.9018 34.9406,32.2992 59.9316,76.2173 59.9316,76.2173 0,0 -12.7268,12.548 -69.8817,23.2368 -65.25385,12.3157 -171.00235,34.1586 -358.43345,45.0799 -30.5443,1.8589 -104.1287,6.5064 -104.1287,6.5064 0,0 -73.3527,0 -169.845,-13.0129 -68.2619,-9.527 -243.8922,-36.2495 -336.4507,-51.8182 -97.6492,-16.4984 -286.469,-58.3249 -286.469,-58.3249 z m 39.106,-114.55836 c 49.5188,13.24496 503.7505,96.89816 503.7505,96.89816 0,0 96.4923,22.075 168.688,65.9931 47.4364,28.8139 81.2202,74.8231 81.2202,74.8231 m -913.0912,138.725 122.8718,-352.9701 30.0817,-4.8798 m -32.627,95.9689 19.6687,72.2669 476.4457,264.2048 c 0,0 33.5525,15.8011 59.9319,54.1421 26.3791,38.8058 29.6188,112.4669 29.6188,112.4669 l 30.0813,715.4672 m 0,0 c 0,0 116.8552,11.8509 208.7197,4.4151 96.7238,-8.133 393.37425,-75.9851 435.02575,-89.2302 41.6513,-13.0126 73.5842,-41.8265 73.5842,-41.8265 v -659.2336 m -756.43555,9.0625 c 48.1303,24.1666 292.9482,66.9225 360.7472,71.3376 68.0306,4.4151 414.89445,-85.2799 414.89445,-85.2799 0,0 49.5186,-89.9273 41.8825,-124.0856 -7.636,-34.1581 -68.956,-255.3744 -68.956,-255.3744 m -1364.31475,1169.053 -24.2966,-19.7513 c 0,0 -19.6687,-90.392 -28.4617,-147.7873 -8.7933,-57.3955 -28.4621,-787.9663 -28.4621,-787.9663 32.1643,18.357 298.2706,153.5965 344.0868,183.5721 36.0981,23.4693 66.8739,54.1421 76.824,92.7155 9.487,37.644 2.3138,61.1135 -7.636,108.9815 -41.6515,200.3028 -95.7986,493.3216 -95.7986,493.3216 m -175.6299,391.7756 c 0,-6.7389 -60.6259,-209.5977 -60.6259,-209.5977 V 1878.197 l 302.4353,106.193 v 399.9087 z m 1311.55625,-440.341 c 74.5099,60.4163 81.2202,119.9027 81.2202,119.9027 l 44.8909,258.6281 c 6.0163,35.3201 -15.0407,69.4784 -49.2874,79.7026 l -374.86265,112.0024 c 0,0 -83.3025,35.0879 -172.1591,29.511 -106.4423,-6.5064 -132.5903,-29.511 -132.5903,-29.511 v -154.2936 c 0,0 8.5618,-62.5076 -40.4944,-140.8163 -50.4445,-80.4001 -132.5903,-107.8197 -132.5903,-107.8197 l -596.3091,-196.5848 v 30.9053 m 654.8525,125.0149 c 0,0 219.8269,53.9099 252.6853,60.416 32.8583,6.739 133.2843,9.7597 183.0347,-2.0912 49.5188,-12.0831 242.73495,-59.9515 281.60965,-75.0554 48.8249,-18.5897 58.0805,-30.6728 44.4282,-56.6985 -12.0327,-22.7722 -44.4282,-53.2125 -44.4282,-53.2125 m -990.84035,96.4332 v 405.2534 l 176.5555,65.0638 c 0,0 84.2284,32.0668 125.8799,27.6517 41.6513,-4.4148 92.0958,-20.2159 92.0958,-20.2159 m -134.4414,16.7304 -72.6586,122.2266 60.3944,10.9214 26.1479,-130.5918 m 11.8013,3.0209 -7.4049,126.1768 61.5516,-0.6971 -37.2548,-127.5713 m 18.5118,-1.394 47.2047,124.5502 56.4608,-9.7593 -88.3933,-118.7413 m 15.735,-3.4855 100.426,112.9319 52.527,-23.7018 -138.3751,-92.4832 m 13.8838,-3.9502 c 3.2397,1.1617 140.6893,79.2379 140.6893,79.2379 l 40.0313,-33.2287 -114.0783,-33.4615 m -213.1164,-5.5767 -122.6402,85.7445 45.3537,29.9756 90.9388,-112.6994 m -39.1058,-10.6889 -145.0859,45.3119 28.462,29.7436 131.8958,-70.4081 m -556.9717,-187.2904 -106.2108,34.8554 c 0.2299,11.851 0,-152.6669 0,-152.6669 1.8512,-32.0668 -41.42,-42.7561 -42.3456,-7.2035 -2.0826,75.5204 0,159.8704 0,159.8704 l 13.1895,0.6973 m 0,-181.9456 87.0051,-26.9548 m 57.6179,206.3445 -144.623,48.7974 v -109.9109 l 14.5778,-2.5561 v 66.2255 l 14.5783,-7.9006 m 360.2843,85.0476 78.9065,-6.0418 M 597.71485,907.82 c 65.0225,79.2381 120.5577,172.8831 173.0847,257.6982 13.4213,21.3782 -18.5115,132.451 -18.5115,132.451"
     style="fill:none;stroke:#7c7b7b;stroke-width:5.78491592px;stroke-linecap:butt;stroke-linejoin:miter;stroke-miterlimit:4;stroke-dasharray:none;stroke-opacity:1"
     inkscape:connector-curvature="0" />
</svg>
