<?xml version="1.0" encoding="UTF-8" standalone="no"?>
<svg
   xmlns:dc="http://purl.org/dc/elements/1.1/"
   xmlns:cc="http://creativecommons.org/ns#"
   xmlns:rdf="http://www.w3.org/1999/02/22-rdf-syntax-ns#"
   xmlns:svg="http://www.w3.org/2000/svg"
   xmlns="http://www.w3.org/2000/svg"
   xmlns:sodipodi="http://sodipodi.sourceforge.net/DTD/sodipodi-0.dtd"
   xmlns:inkscape="http://www.inkscape.org/namespaces/inkscape"
   class="icon"
   height="1333"
   viewBox="0 0 1000 2666"
   version="1.1"
   id="svg12013"
   sodipodi:docname="ia12.svg"
   width="1000"
   inkscape:version="0.92.2 (5c3e80d, 2017-08-06)">
  <metadata
     id="metadata12019">
    <rdf:RDF>
      <cc:Work
         rdf:about="">
        <dc:format>image/svg+xml</dc:format>
        <dc:type
           rdf:resource="http://purl.org/dc/dcmitype/StillImage" />
        <dc:title />
      </cc:Work>
    </rdf:RDF>
  </metadata>
  <defs
     id="defs12017">
    <pattern
       y="0"
       x="0"
       height="6"
       width="6"
       patternUnits="userSpaceOnUse"
       id="EMFhbasepattern" />
    <pattern
       y="0"
       x="0"
       height="6"
       width="6"
       patternUnits="userSpaceOnUse"
       id="EMFhbasepattern-8" />
  </defs>
  <sodipodi:namedview
     pagecolor="#ffffff"
     bordercolor="#666666"
     borderopacity="1"
     objecttolerance="10"
     gridtolerance="10"
     guidetolerance="10"
     inkscape:pageopacity="0"
     inkscape:pageshadow="2"
     inkscape:window-width="1366"
     inkscape:window-height="745"
     id="namedview12015"
     showgrid="false"
     inkscape:zoom="0.26240291"
     inkscape:cx="-141.80724"
     inkscape:cy="500.75689"
     inkscape:window-x="-8"
     inkscape:window-y="-8"
     inkscape:window-maximized="1"
     inkscape:current-layer="svg12013" />
  <path
     id="path1616"
     d="M 42.272814,846.48016 69.745015,766.00222 523.44298,722.74331 821.24855,781.9998 c 0,0 85.18001,22.20088 109.8889,44.8914 24.54598,22.69038 42.1023,53.54311 42.1023,53.54311 0,0 -8.94064,8.81504 -49.09231,16.32399 -45.84125,8.65185 -120.13017,23.99662 -251.80164,31.6689 -21.45755,1.30589 -73.15104,4.57079 -73.15104,4.57079 0,0 -51.53071,0 -119.31713,-9.14164 C 431.92324,917.16357 308.54191,898.39085 243.519,887.45375 174.91986,875.86353 42.272814,846.48016 42.272814,846.48016 Z m 27.472201,-80.47794 c 34.787245,9.30466 353.887735,68.07154 353.887735,68.07154 0,0 67.78642,15.50782 118.50434,46.36055 33.32435,20.24194 57.05767,52.56368 57.05767,52.56368 M -42.257277,1030.4531 44.0609,782.48952 65.193473,779.06143 m -22.920659,67.41873 13.817382,50.76792 334.705954,185.60542 c 0,0 23.57083,11.1004 42.10252,38.0352 18.53147,27.2613 20.80738,79.0086 20.80738,79.0086 l 21.13229,502.62 m 0,0 c 0,0 82.09148,8.3253 146.62685,3.1016 67.94905,-5.7134 276.34776,-53.38 305.60819,-62.6847 29.26029,-9.1415 51.69334,-29.3834 51.69334,-29.3834 v -463.1155 m -531.4005,6.3665 c 33.81182,16.9771 205.79786,47.0134 253.42706,50.115 47.79191,3.1016 291.46583,-59.9096 291.46583,-59.9096 0,0 34.78709,-63.1744 29.42269,-87.1708 -5.3643,-23.9963 -48.44197,-179.40209 -48.44197,-179.40209 M 14.800546,1701.7009 -2.2679689,1687.8256 c 0,0 -13.8173711,-63.5009 -19.9945141,-103.8215 -6.177345,-40.3206 -19.994794,-553.551 -19.994794,-553.551 22.595612,12.8959 209.536887,107.9024 241.723047,128.9605 25.35912,16.4874 46.97931,38.0351 53.96932,65.1332 6.66467,26.4451 1.62545,42.9326 -5.36435,76.5601 -29.26042,140.714 -67.29908,346.5614 -67.29908,346.5614 M 57.390595,1922.893 c 0,-4.7341 -42.590049,-147.2436 -42.590049,-147.2436 v -160.9558 l 212.462604,74.6012 v 280.9383 z M 978.76672,1613.5508 c 52.34368,42.4428 57.05768,84.2323 57.05768,84.2323 l 31.5361,181.6878 c 4.2265,24.8127 -10.5661,48.8091 -34.6247,55.9916 l -263.34323,78.6824 c 0,0 -58.5205,24.6495 -120.94279,20.7317 -74.77636,-4.5708 -93.14548,-20.7317 -93.14548,-20.7317 v -108.3922 c 0,0 6.01471,-43.9119 -28.44757,-98.9242 -35.43756,-56.4816 -93.14548,-75.7441 -93.14548,-75.7441 L 14.800546,1592.9824 v 21.7112 m 460.037794,87.8237 c 0,0 154.42971,37.872 177.51294,42.4426 23.08316,4.7342 93.63302,6.8563 128.58297,-1.469 34.78726,-8.4886 170.52276,-42.1164 197.83247,-52.7269 34.29978,-13.0594 40.80188,-21.5479 31.21108,-39.8311 -8.453,-15.9976 -31.21108,-37.3821 -31.21108,-37.3821 m -696.07128,67.7449 v 284.693 l 124.0313,45.7077 c 0,0 59.17095,22.5271 88.43138,19.4255 29.26029,-3.1015 64.69785,-14.2018 64.69785,-14.2018 m -94.44588,11.7531 -51.04311,85.865 42.42743,7.6723 18.36906,-91.7415 m 8.29047,2.1222 -5.20198,88.6399 43.24036,-0.4897 -26.17171,-89.6195 m 13.00465,-0.9793 33.16158,87.4972 39.66406,-6.8559 -62.09683,-83.4166 m 11.05393,-2.4485 70.54987,79.3353 36.90054,-16.6506 -97.20934,-64.97 m 9.75345,-2.7751 c 2.2759,0.8161 98.83508,55.6651 98.83508,55.6651 l 28.12223,-23.3433 -80.1407,-23.507 m -149.71554,-3.9176 -86.15548,60.236 31.86125,21.0581 63.88505,-79.172 m -27.47206,-7.5091 -101.92371,31.8319 19.99472,20.8951 92.65759,-49.4621 M 48.774994,1891.0609 -25.83873,1915.547 c 0.161511,8.3254 0,-107.2495 0,-107.2495 1.300486,-22.5271 -29.097792,-30.0364 -29.74803,-5.0605 -1.463048,53.0536 0,112.31 0,112.31 l 9.265694,0.4899 m 0,-127.8179 61.121612,-18.936 m 40.476917,144.9583 -101.598529,34.2804 v -77.213 l 10.240999,-1.7957 v 46.5239 l 10.241337,-5.5503 m 253.10188,59.7465 55.43229,-4.2444 M 599.19476,932.99799 c 45.67869,55.66523 84.6925,121.45141 121.59304,181.03451 9.42854,15.0183 -13.00444,93.0476 -13.00444,93.0476"
     style="fill:none;stroke:#7c7b7b;stroke-width:4.06393814px;stroke-linecap:butt;stroke-linejoin:miter;stroke-miterlimit:4;stroke-dasharray:none;stroke-opacity:1"
     inkscape:connector-curvature="0" />
</svg>
