<?xml version="1.0" encoding="UTF-8" standalone="no"?>
<svg
   xmlns:dc="http://purl.org/dc/elements/1.1/"
   xmlns:cc="http://creativecommons.org/ns#"
   xmlns:rdf="http://www.w3.org/1999/02/22-rdf-syntax-ns#"
   xmlns:svg="http://www.w3.org/2000/svg"
   xmlns="http://www.w3.org/2000/svg"
   xmlns:sodipodi="http://sodipodi.sourceforge.net/DTD/sodipodi-0.dtd"
   xmlns:inkscape="http://www.inkscape.org/namespaces/inkscape"
   class="icon"
   height="1333"
   viewBox="0 0 1000 2666"
   version="1.1"
   id="svg12013"
   sodipodi:docname="ia12.svg"
   width="1000"
   inkscape:version="0.92.2 (5c3e80d, 2017-08-06)">
  <metadata
     id="metadata12019">
    <rdf:RDF>
      <cc:Work
         rdf:about="">
        <dc:format>image/svg+xml</dc:format>
        <dc:type
           rdf:resource="http://purl.org/dc/dcmitype/StillImage" />
        <dc:title></dc:title>
      </cc:Work>
    </rdf:RDF>
  </metadata>
  <defs
     id="defs12017">
    <pattern
       y="0"
       x="0"
       height="6"
       width="6"
       patternUnits="userSpaceOnUse"
       id="EMFhbasepattern" />
  </defs>
  <sodipodi:namedview
     pagecolor="#ffffff"
     bordercolor="#666666"
     borderopacity="1"
     objecttolerance="10"
     gridtolerance="10"
     guidetolerance="10"
     inkscape:pageopacity="0"
     inkscape:pageshadow="2"
     inkscape:window-width="1366"
     inkscape:window-height="745"
     id="namedview12015"
     showgrid="false"
     inkscape:zoom="0.26240291"
     inkscape:cx="544.16076"
     inkscape:cy="500.75689"
     inkscape:window-x="-8"
     inkscape:window-y="-8"
     inkscape:window-maximized="1"
     inkscape:current-layer="svg12013" />
  <path
     id="path13365"
     d="m 377.59065,1226.3992 h 189.82489 c 12.95274,0 24.56555,4.4129 33.49847,13.6807 9.3796,8.8266 13.84609,19.8591 13.84609,33.0985 v 233.8984 h -32.15861 v -102.3855 h -219.7502 v 102.3855 H 330.2461 v -233.8984 c 0,-13.2394 4.46648,-24.2719 13.84601,-33.0985 9.3796,-9.2678 20.5458,-13.6807 33.49854,-13.6807 z m -14.73936,146.0759 h 219.7502 v -99.2967 c 0,-3.9716 -1.78653,-7.5024 -4.46642,-10.5912 -3.12655,-2.6482 -6.69971,-4.4136 -11.1662,-4.4136 H 378.03732 c -4.01982,0 -8.03965,1.7654 -10.71954,4.4136 -3.12654,3.0888 -4.46649,6.6196 -4.46649,10.5912 z"
     style="fill:#e9e9e9;fill-opacity:1;fill-rule:nonzero;stroke:none;stroke-width:1.99999988"
     inkscape:connector-curvature="0" />
  <path
     id="path13367"
     d="m 600.59033,1560.7975 c 16.77287,0 30.19123,-13.7324 30.19123,-30.3062 0,-16.1001 -13.41836,-29.8325 -30.19123,-29.8325 -16.77288,0 -30.19122,13.7324 -30.19122,29.8325 0,16.5738 13.41834,30.3062 30.19122,30.3062 z"
     style="fill:none;fill-opacity:0.04313725;stroke:#e9e9e9;stroke-width:22.60000229;stroke-linecap:butt;stroke-linejoin:miter;stroke-miterlimit:4;stroke-dasharray:none;stroke-opacity:1"
     inkscape:connector-curvature="0" />
  <path
     id="path13369"
     d="m 346.49328,1194.7061 v 84.2918"
     style="fill:#000000;fill-opacity:0.04313725;stroke:#e9e9e9;stroke-width:32;stroke-linecap:butt;stroke-linejoin:miter;stroke-miterlimit:4;stroke-dasharray:none;stroke-opacity:1"
     inkscape:connector-curvature="0" />
  <path
     id="path13367-9"
     d="m 346.49328,1194.7061 c 16.77287,0 30.19123,-13.7324 30.19123,-30.3061 0,-16.1001 -13.41836,-29.8325 -30.19123,-29.8325 -16.77289,0 -30.19122,13.7324 -30.19122,29.8325 0,16.5737 13.41833,30.3061 30.19122,30.3061 z"
     style="fill:none;fill-opacity:1;stroke:#e9e9e9;stroke-width:23.60000038;stroke-linecap:butt;stroke-linejoin:miter;stroke-miterlimit:4;stroke-dasharray:none;stroke-opacity:1"
     inkscape:connector-curvature="0" />
</svg>
