<?xml version="1.0" standalone="no"?><!DOCTYPE svg PUBLIC "-//W3C//DTD SVG 1.1//EN" "http://www.w3.org/Graphics/SVG/1.1/DTD/svg11.dtd"><svg class="icon" height="512" viewBox="0 0 1024 1024" version="1.1" xmlns="http://www.w3.org/2000/svg"><path d="M855.188821 810.732307 855.188821 356.403991c0-43.833017-67.563753-89.023508-111.265831-89.023508L276.606091 267.380483l0-53.777257c39.289008-17.173532 66.759703-56.376611 66.759703-101.995724 0-61.446424-49.830659-111.265831-111.265831-111.265831S120.834132 50.161077 120.834132 111.607501c0 45.619113 27.470696 84.822192 66.759703 101.995724l0 432.092131c0 43.811535 67.563753 66.759703 111.266854 66.759703l467.315876 0L766.176565 810.73333c-39.297191 17.167395-66.759703 56.36945-66.759703 101.999816 0 61.457677 49.808154 111.266854 111.266854 111.266854 61.456654 0 111.266854-49.808154 111.266854-111.266854C921.949547 867.10278 894.486012 827.901747 855.188821 810.732307zM232.099963 167.240417c-30.728838 0-55.632915-24.904077-55.632915-55.632915 0-30.728838 24.9051-55.632915 55.632915-55.632915s55.632915 24.904077 55.632915 55.632915C287.732878 142.33634 262.828801 167.240417 232.099963 167.240417zM298.859666 623.441781c-21.840298 0-22.253575-22.60036-22.253575-44.506128L276.606091 356.403991l445.063324 0c21.841321 0 44.506128 22.601383 44.506128 44.507151l0 222.530639L298.859666 623.441781zM810.682693 968.366062c-30.728838 0-55.632915-24.904077-55.632915-55.632915 0-30.727815 24.904077-55.633938 55.632915-55.633938 30.727815 0 55.632915 24.906123 55.632915 55.633938C866.315609 943.461984 841.410509 968.366062 810.682693 968.366062z" /></svg>