<?xml version="1.0" encoding="UTF-8" standalone="no"?>
<svg
   xmlns:dc="http://purl.org/dc/elements/1.1/"
   xmlns:cc="http://creativecommons.org/ns#"
   xmlns:rdf="http://www.w3.org/1999/02/22-rdf-syntax-ns#"
   xmlns:svg="http://www.w3.org/2000/svg"
   xmlns="http://www.w3.org/2000/svg"
   xmlns:sodipodi="http://sodipodi.sourceforge.net/DTD/sodipodi-0.dtd"
   xmlns:inkscape="http://www.inkscape.org/namespaces/inkscape"
   class="icon"
   height="1333"
   viewBox="0 0 1000 2666"
   version="1.1"
   id="svg12013"
   sodipodi:docname="ia12.svg"
   width="1000"
   inkscape:version="0.92.2 (5c3e80d, 2017-08-06)">
  <metadata
     id="metadata12019">
    <rdf:RDF>
      <cc:Work
         rdf:about="">
        <dc:format>image/svg+xml</dc:format>
        <dc:type
           rdf:resource="http://purl.org/dc/dcmitype/StillImage" />
        <dc:title></dc:title>
      </cc:Work>
    </rdf:RDF>
  </metadata>
  <defs
     id="defs12017" />
  <sodipodi:namedview
     pagecolor="#ffffff"
     bordercolor="#666666"
     borderopacity="1"
     objecttolerance="10"
     gridtolerance="10"
     guidetolerance="10"
     inkscape:pageopacity="0"
     inkscape:pageshadow="2"
     inkscape:window-width="1366"
     inkscape:window-height="745"
     id="namedview12015"
     showgrid="false"
     inkscape:zoom="0.37109375"
     inkscape:cx="512"
     inkscape:cy="608.65782"
     inkscape:window-x="-8"
     inkscape:window-y="-8"
     inkscape:window-maximized="1"
     inkscape:current-layer="svg12013" />
  <path
     d="m 593.35145,1623.1795 v -182.3023 c 0,-17.5882 -27.1104,-35.7212 -44.64616,-35.7212 h -187.514 v -21.5785 c 15.76498,-6.891 26.78777,-22.6215 26.78777,-40.9265 0,-24.6558 -19.99488,-44.6461 -44.64615,-44.6461 -24.65127,0 -44.64615,19.9903 -44.64615,44.6461 0,18.305 11.0228,34.0355 26.78778,40.9265 v 173.3798 c 0,17.5797 27.11039,26.7878 44.64656,26.7878 h 187.51359 v 39.4348 c -15.76826,6.8885 -26.78778,22.6186 -26.78778,40.9281 0,24.6603 19.98586,44.6466 44.64657,44.6466 24.65989,0 44.64656,-19.9859 44.64656,-44.6466 -4e-4,-18.3095 -11.02034,-34.0392 -26.78859,-40.9285 z M 343.33291,1364.9741 c -12.33015,0 -22.32307,-9.9929 -22.32307,-22.3231 0,-12.3301 9.99334,-22.323 22.32307,-22.323 12.32974,0 22.32308,9.9929 22.32308,22.323 0,12.3302 -9.99293,22.3231 -22.32308,22.3231 z m 26.78778,183.0538 c -8.76356,0 -8.9294,-9.0685 -8.9294,-17.8584 v -89.2923 H 539.7759 c 8.76397,0 17.85838,9.069 17.85838,17.8588 v 89.2919 z m 205.37237,138.4032 c -12.33014,0 -22.32307,-9.993 -22.32307,-22.3231 0,-12.3297 9.99293,-22.3235 22.32307,-22.3235 12.32975,0 22.32309,9.9938 22.32309,22.3235 0,12.3301 -9.99334,22.3231 -22.32309,22.3231 z"
     id="path12011"
     inkscape:connector-curvature="0"
     style="fill:#000000;fill-opacity:0.04313726;stroke:none;stroke-width:0.01;stroke-opacity:1;stroke-miterlimit:4;stroke-dasharray:0.01, 0.01000000000000000;stroke-dashoffset:0" />
</svg>
