<?xml version="1.0" encoding="UTF-8" standalone="no"?>
<!-- Created with Inkscape (http://www.inkscape.org/) -->

<svg
   xmlns:dc="http://purl.org/dc/elements/1.1/"
   xmlns:cc="http://creativecommons.org/ns#"
   xmlns:rdf="http://www.w3.org/1999/02/22-rdf-syntax-ns#"
   xmlns:svg="http://www.w3.org/2000/svg"
   xmlns="http://www.w3.org/2000/svg"
   xmlns:sodipodi="http://sodipodi.sourceforge.net/DTD/sodipodi-0.dtd"
   xmlns:inkscape="http://www.inkscape.org/namespaces/inkscape"
   width="317.16455"
   height="35.956951"
   viewBox="0 0 83.916803 9.5136089"
   version="1.1"
   id="svg5116"
   inkscape:version="0.92.2 (5c3e80d, 2017-08-06)"
   sodipodi:docname="ialogoactuator1.svg">
  <defs
     id="defs5110" />
  <sodipodi:namedview
     id="base"
     pagecolor="#ffffff"
     bordercolor="#666666"
     borderopacity="1.0"
     inkscape:pageopacity="0.0"
     inkscape:pageshadow="2"
     inkscape:zoom="1.1041471"
     inkscape:cx="128.42569"
     inkscape:cy="31.030156"
     inkscape:document-units="mm"
     inkscape:current-layer="layer1"
     showgrid="false"
     fit-margin-top="0"
     fit-margin-left="0"
     fit-margin-right="0"
     fit-margin-bottom="0"
     inkscape:window-width="1366"
     inkscape:window-height="745"
     inkscape:window-x="-8"
     inkscape:window-y="-8"
     inkscape:window-maximized="1"
     units="px" />
  <metadata
     id="metadata5113">
    <rdf:RDF>
      <cc:Work
         rdf:about="">
        <dc:format>image/svg+xml</dc:format>
        <dc:type
           rdf:resource="http://purl.org/dc/dcmitype/StillImage" />
        <dc:title></dc:title>
      </cc:Work>
    </rdf:RDF>
  </metadata>
  <g
     inkscape:label="Layer 1"
     inkscape:groupmode="layer"
     id="layer1"
     transform="translate(-34.4721,-127.69964)">
    <path
       id="path830-5"
       d="m 36.042382,127.69962 h 6.307702 c 0.452453,0 0.824995,0.16001 1.117823,0.48155 0.319402,0.29367 0.479012,0.66804 0.479012,1.1221 v 7.90762 h -1.091181 v -3.47309 h -7.319052 v 3.47309 H 34.4721 v -7.90762 c 0,-0.45436 0.133042,-0.8285 0.452591,-1.1221 0.292813,-0.32136 0.665399,-0.48155 1.117821,-0.48155 z m -0.505718,4.96909 h 7.319056 v -3.36615 c 0,-0.13281 -0.05344,-0.26745 -0.159672,-0.34824 -0.07939,-0.10758 -0.212935,-0.15978 -0.345994,-0.15978 h -6.307686 c -0.133019,0 -0.239432,0.0512 -0.345957,0.15978 -0.106322,0.0768 -0.159672,0.21351 -0.159672,0.34824 z M 54.885569,128.7949 H 47.00759 c -0.133042,0 -0.26615,0.051 -0.345994,0.16001 -0.106384,0.0768 -0.159672,0.21351 -0.159672,0.34747 v 6.30469 c 0,0.16002 0.05344,0.26661 0.159672,0.37366 0.07944,0.10759 0.213003,0.1607 0.345994,0.1607 h 7.877965 v 1.06872 H 47.00759 c -0.425958,0 -0.798432,-0.16002 -1.117816,-0.45442 -0.319406,-0.32133 -0.47902,-0.69522 -0.47902,-1.12214 v -6.33134 c 0,-0.45442 0.159673,-0.8285 0.47902,-1.12217 0.319329,-0.32131 0.69188,-0.48004 1.117816,-0.48004 h 7.877965 z m 0.878246,-1.09528 h 9.474832 v 1.09528 h -4.205124 v 8.41532 h -1.064582 v -8.41532 h -4.205126 z m 18.816608,7.90752 v -7.90752 h 1.064586 v 7.93434 c 0,0.4273 -0.133041,0.80121 -0.452523,1.12193 -0.292783,0.29367 -0.691887,0.45439 -1.117822,0.45439 h -6.307655 c -0.452596,0 -0.825125,-0.16069 -1.117824,-0.45439 -0.31948,-0.32131 -0.479018,-0.69522 -0.479018,-1.12193 v -7.93434 h 1.09122 v 7.90752 c 0,0.16001 0.05344,0.2666 0.13304,0.37325 0.106384,0.10733 0.239464,0.16001 0.372699,0.16001 h 6.307668 c 0.133018,0 0.239746,-0.051 0.345953,-0.16001 0.106482,-0.10759 0.159946,-0.21283 0.159946,-0.37325 z m 4.125269,-7.90752 h 6.307704 c 0.425878,0 0.798432,0.16001 1.117811,0.48155 0.319484,0.29367 0.45245,0.66804 0.45245,1.1221 v 7.90762 h -1.064555 v -3.47309 h -7.319036 v 3.47309 h -1.091231 v -7.90762 c 0,-0.45436 0.159627,-0.8285 0.452524,-1.1221 0.319484,-0.32136 0.691883,-0.48155 1.144406,-0.48155 z m -0.505726,4.96909 h 7.319046 v -3.36615 c 0,-0.13281 -0.05345,-0.26745 -0.159673,-0.34824 -0.106482,-0.10758 -0.213003,-0.15978 -0.345994,-0.15978 h -6.307679 c -0.133041,0 -0.266151,0.0512 -0.372621,0.15978 -0.07944,0.0768 -0.133017,0.21351 -0.133017,0.34824 z m 9.394985,-4.96909 h 9.474826 v 1.09528 h -4.178475 v 8.41532 H 91.800081 V 128.7949 H 87.59497 Z m 12.003234,0 h 6.334305 c 0.42596,0 0.79843,0.16001 1.11781,0.48155 0.29282,0.29367 0.45253,0.66804 0.45253,1.1221 v 6.33142 c 0,0.42802 -0.15983,0.80107 -0.45253,1.1221 -0.3194,0.29369 -0.69188,0.45439 -1.11781,0.45439 h -6.334305 c -0.425807,0 -0.798438,-0.16002 -1.117818,-0.45439 -0.292815,-0.32133 -0.452451,-0.69521 -0.452451,-1.1221 v -6.33142 c 0,-0.45436 0.159603,-0.8285 0.452451,-1.1221 0.319478,-0.32136 0.69188,-0.48155 1.117818,-0.48155 z m 0.02734,8.44202 h 6.281065 c 0.15967,0 0.26615,-0.051 0.37262,-0.16002 0.10653,-0.10758 0.1599,-0.21373 0.1599,-0.37364 v -6.3046 c 0,-0.13281 -0.0534,-0.2666 -0.1599,-0.34744 -0.10642,-0.10758 -0.21301,-0.16046 -0.37262,-0.16046 h -6.281175 c -0.159668,0 -0.26615,0.051 -0.372621,0.16046 -0.106421,0.0762 -0.159668,0.21374 -0.159668,0.34744 v 6.3046 c 0,0.16002 0.05348,0.2666 0.159668,0.37364 0.106531,0.10734 0.213008,0.16002 0.372621,0.16002 z m 18.763375,-6.83908 v 2.77827 c 0,0.45443 -0.15983,0.82852 -0.45252,1.12194 -0.31948,0.32135 -0.69203,0.48154 -1.11782,0.48154 h -1.46364 l 2.98083,3.5264 h -1.41072 l -2.95423,-3.52628 h -3.45988 c -0.0794,0 -0.23947,-0.035 -0.50572,-0.051 v 3.57984 h -1.09127 v -9.48563 h 7.90462 c 0.42589,0 0.79843,0.16001 1.11782,0.45441 0.29281,0.32132 0.45245,0.69521 0.45245,1.12193 z m -7.87796,3.28574 h 6.30769 c 0.13305,0 0.23969,-0.051 0.346,-0.13282 0.10647,-0.10635 0.13304,-0.21282 0.13304,-0.3475 v -2.77831 c 0,-0.15979 -0.0273,-0.2666 -0.13304,-0.37325 -0.10659,-0.10758 -0.213,-0.16001 -0.346,-0.16001 h -6.30776 c -0.13304,0 -0.26621,0.0512 -0.34595,0.16001 -0.10654,0.10734 -0.15977,0.21351 -0.15977,0.37325 v 2.77831 c 0,0.13283 0.0534,0.23928 0.15977,0.3475 0.0794,0.0763 0.21293,0.13282 0.34594,0.13282 z"
       style="display:inline;opacity:1;fill:#000000;fill-opacity:1;fill-rule:nonzero;stroke:none;stroke-width:0.7317664;stroke-linecap:butt;stroke-linejoin:miter;stroke-miterlimit:4;stroke-dasharray:none;stroke-opacity:1"
       inkscape:connector-curvature="0" />
  </g>
</svg>
