<?xml version="1.0" encoding="UTF-8" standalone="no"?>
<!-- Created with Inkscape (http://www.inkscape.org/) -->

<svg
   xmlns:dc="http://purl.org/dc/elements/1.1/"
   xmlns:cc="http://creativecommons.org/ns#"
   xmlns:rdf="http://www.w3.org/1999/02/22-rdf-syntax-ns#"
   xmlns:svg="http://www.w3.org/2000/svg"
   xmlns="http://www.w3.org/2000/svg"
   xmlns:sodipodi="http://sodipodi.sourceforge.net/DTD/sodipodi-0.dtd"
   xmlns:inkscape="http://www.inkscape.org/namespaces/inkscape"
   width="74.574631"
   height="57.47155"
   viewBox="0 0 19.731281 15.206014"
   version="1.1"
   id="svg5116"
   inkscape:version="0.92.2 (5c3e80d, 2017-08-06)"
   sodipodi:docname="ialogo.svg">
  <defs
     id="defs5110" />
  <sodipodi:namedview
     id="base"
     pagecolor="#ffffff"
     bordercolor="#666666"
     borderopacity="1.0"
     inkscape:pageopacity="0.0"
     inkscape:pageshadow="2"
     inkscape:zoom="3.7941162"
     inkscape:cx="-16.393034"
     inkscape:cy="15.604315"
     inkscape:document-units="mm"
     inkscape:current-layer="layer1"
     showgrid="false"
     fit-margin-top="0"
     fit-margin-left="0"
     fit-margin-right="0"
     fit-margin-bottom="0"
     inkscape:window-width="1366"
     inkscape:window-height="745"
     inkscape:window-x="-8"
     inkscape:window-y="-8"
     inkscape:window-maximized="1"
     units="px" />
  <metadata
     id="metadata5113">
    <rdf:RDF>
      <cc:Work
         rdf:about="">
        <dc:format>image/svg+xml</dc:format>
        <dc:type
           rdf:resource="http://purl.org/dc/dcmitype/StillImage" />
        <dc:title></dc:title>
      </cc:Work>
    </rdf:RDF>
  </metadata>
  <g
     inkscape:label="Layer 1"
     inkscape:groupmode="layer"
     id="layer1"
     transform="translate(-62.081993,-119.69313)">
    <text
       id="text822"
       y="131.69913"
       x="61.658455"
       style="font-style:normal;font-variant:normal;font-weight:400;font-size:15.5569849px;line-height:125%;font-family:Orbitron;text-align:start;letter-spacing:0px;word-spacing:0px;text-anchor:start;fill:#000000;fill-opacity:1;stroke:none;stroke-width:0.26458433"
       xml:space="preserve"
       transform="scale(1.0002267,0.99977337)"><tspan
         id="tspan820"
         y="131.69913"
         x="61.658455"
         sodipodi:role="line"
         style="stroke-width:0.26458433"><tspan
           id="tspan818"
           style="font-style:normal;font-variant:normal;font-weight:400;font-size:15.5569849px;font-family:Orbitron;fill:#363535;stroke-width:0.26458433"
           dy="0"
           dx="0">i</tspan></tspan></text>
    <text
       id="text828"
       y="131.69913"
       x="64.835648"
       style="font-style:normal;font-variant:normal;font-weight:400;font-size:15.5569849px;line-height:125%;font-family:Orbitron;text-align:start;letter-spacing:0px;word-spacing:0px;text-anchor:start;fill:#000000;fill-opacity:1;stroke:none;stroke-width:0.26458433"
       xml:space="preserve"
       transform="scale(1.0002267,0.99977337)"><tspan
         id="tspan826"
         y="131.69913"
         x="64.835648"
         sodipodi:role="line"
         style="stroke-width:0.26458433"><tspan
           id="tspan824"
           style="font-style:normal;font-variant:normal;font-weight:400;font-size:15.5569849px;font-family:Orbitron;fill:#4a99d9;stroke-width:0.26458433"
           dy="0"
           dx="0">A </tspan></tspan></text>
    <path
       id="path830"
       d="m 62.451221,132.66182 h 1.483114 c 0.106382,0 0.193992,0.0377 0.262831,0.1131 0.07511,0.069 0.112627,0.157 0.112627,0.26383 v 1.85929 H 64.05322 v -0.8166 h -1.720913 v 0.8166 h -0.250314 v -1.85929 c 0,-0.10673 0.03129,-0.19473 0.106398,-0.26383 0.06884,-0.0756 0.156443,-0.1131 0.262828,-0.1131 z m -0.118906,1.16834 h 1.720912 v -0.79144 c 0,-0.0312 -0.01256,-0.0628 -0.03755,-0.0819 -0.01877,-0.0251 -0.05006,-0.0377 -0.08135,-0.0377 h -1.483109 c -0.03129,0 -0.05632,0.0114 -0.08135,0.0377 -0.02503,0.0189 -0.03755,0.0503 -0.03755,0.0819 z m 4.549467,-0.91081 h -1.852329 c -0.03129,0 -0.06258,0.0114 -0.08134,0.0377 -0.02503,0.0189 -0.03755,0.0503 -0.03755,0.0816 v 1.48239 c 0,0.0377 0.01256,0.0628 0.03755,0.0878 0.01877,0.025 0.05006,0.0377 0.08134,0.0377 h 1.852328 v 0.25127 h -1.852328 c -0.100137,0 -0.187736,-0.0377 -0.262831,-0.10673 -0.07511,-0.0756 -0.112627,-0.16337 -0.112627,-0.26382 v -1.48867 c 0,-0.10674 0.03757,-0.19472 0.112627,-0.26382 0.07511,-0.0756 0.162704,-0.1131 0.262831,-0.1131 h 1.852328 z m 0.20651,-0.25753 h 2.227797 v 0.25753 h -0.988741 v 1.97865 h -0.250313 v -1.97865 h -0.988742 z m 4.424308,1.85927 v -1.85927 h 0.250314 v 1.86557 c 0,0.10037 -0.03129,0.18842 -0.106398,0.2638 -0.06885,0.069 -0.162705,0.10673 -0.26283,0.10673 h -1.483109 c -0.106398,0 -0.193994,-0.0377 -0.262831,-0.10673 -0.07511,-0.0756 -0.112644,-0.16337 -0.112644,-0.2638 v -1.86557 h 0.256579 v 1.85927 c 0,0.0377 0.01256,0.0628 0.03129,0.0878 0.02503,0.0251 0.05632,0.0377 0.08761,0.0377 h 1.48311 c 0.03129,0 0.05632,-0.0114 0.08135,-0.0377 0.02503,-0.0251 0.03757,-0.0503 0.03757,-0.0878 z m 0.969966,-1.85927 h 1.483115 c 0.100121,0 0.187736,0.0377 0.262832,0.1131 0.07511,0.069 0.106382,0.157 0.106382,0.26383 v 1.85929 H 74.08458 v -0.8166 h -1.720913 v 0.8166 h -0.256571 v -1.85929 c 0,-0.10673 0.03754,-0.19473 0.106382,-0.26383 0.07511,-0.0756 0.162704,-0.1131 0.269088,-0.1131 z m -0.118906,1.16834 h 1.720915 v -0.79144 c 0,-0.0312 -0.01256,-0.0628 -0.03757,-0.0819 -0.02503,-0.0251 -0.05006,-0.0377 -0.08134,-0.0377 h -1.483114 c -0.03129,0 -0.06258,0.0114 -0.0876,0.0377 -0.01877,0.0189 -0.03129,0.0503 -0.03129,0.0819 z m 2.209026,-1.16834 h 2.227797 v 0.25753 h -0.982481 v 1.97865 h -0.256575 v -1.97865 h -0.988741 z m 2.822295,0 h 1.489371 c 0.100137,0 0.187737,0.0377 0.262831,0.1131 0.06884,0.069 0.106399,0.157 0.106399,0.26383 v 1.48867 c 0,0.10054 -0.03757,0.18842 -0.106399,0.2638 -0.07511,0.069 -0.162704,0.10674 -0.262831,0.10674 h -1.489371 c -0.10012,0 -0.187734,-0.0377 -0.262828,-0.10674 -0.06884,-0.0756 -0.106398,-0.16336 -0.106398,-0.2638 v -1.48867 c 0,-0.10673 0.03754,-0.19473 0.106398,-0.26383 0.07511,-0.0756 0.162704,-0.1131 0.262828,-0.1131 z m 0.0065,1.98492 h 1.476855 c 0.03757,0 0.06258,-0.0114 0.0876,-0.0377 0.02503,-0.0251 0.03757,-0.0503 0.03757,-0.0878 v -1.48238 c 0,-0.0312 -0.01256,-0.0628 -0.03757,-0.0816 -0.02503,-0.0251 -0.05006,-0.0377 -0.0876,-0.0377 h -1.476855 c -0.03757,0 -0.06257,0.0114 -0.0876,0.0377 -0.02503,0.0189 -0.03757,0.0503 -0.03757,0.0816 v 1.48238 c 0,0.0377 0.01256,0.0628 0.03757,0.0878 0.02503,0.0251 0.05006,0.0377 0.0876,0.0377 z m 4.411793,-1.60802 v 0.65324 c 0,0.10674 -0.03757,0.19473 -0.106383,0.2638 -0.07511,0.0756 -0.162704,0.1131 -0.262831,0.1131 h -0.344222 l 0.700881,0.82916 h -0.331744 l -0.694624,-0.82914 h -0.81352 c -0.01877,0 -0.05631,-0.007 -0.118906,-0.0114 v 0.84171 h -0.256569 v -2.23032 h 1.858585 c 0.100121,0 0.187736,0.0377 0.26283,0.10673 0.06884,0.0756 0.106398,0.16337 0.106398,0.26382 z m -1.852326,0.77258 h 1.483114 c 0.03129,0 0.05632,-0.0114 0.08135,-0.0312 0.02503,-0.025 0.03129,-0.0503 0.03129,-0.0816 v -0.65326 c 0,-0.0377 -0.0065,-0.0628 -0.03129,-0.0878 -0.02503,-0.0251 -0.05006,-0.0377 -0.08135,-0.0377 h -1.483114 c -0.03129,0 -0.06258,0.0114 -0.08135,0.0377 -0.02503,0.0251 -0.03757,0.0503 -0.03757,0.0878 v 0.65326 c 0,0.0312 0.01256,0.0565 0.03757,0.0816 0.01877,0.0189 0.05006,0.0312 0.08135,0.0312 z"
       style="fill:#363535;fill-opacity:1;fill-rule:nonzero;stroke:none;stroke-width:0.1000004;stroke-linecap:butt;stroke-linejoin:miter;stroke-miterlimit:4;stroke-dasharray:none;stroke-opacity:1"
       inkscape:connector-curvature="0" />
  </g>
</svg>
