<?xml version="1.0" encoding="UTF-8" standalone="no"?>
<!-- Created with Inkscape (http://www.inkscape.org/) -->

<svg
   xmlns:dc="http://purl.org/dc/elements/1.1/"
   xmlns:cc="http://creativecommons.org/ns#"
   xmlns:rdf="http://www.w3.org/1999/02/22-rdf-syntax-ns#"
   xmlns:svg="http://www.w3.org/2000/svg"
   xmlns="http://www.w3.org/2000/svg"
   xmlns:xlink="http://www.w3.org/1999/xlink"
   xmlns:sodipodi="http://sodipodi.sourceforge.net/DTD/sodipodi-0.dtd"
   xmlns:inkscape="http://www.inkscape.org/namespaces/inkscape"
   width="46.09211"
   height="45.769341"
   viewBox="0 0 12.195256 12.109804"
   version="1.1"
   id="svg5116"
   inkscape:version="0.92.2 (5c3e80d, 2017-08-06)"
   sodipodi:docname="ialogo1.svg">
  <defs
     id="defs5110" />
  <sodipodi:namedview
     id="base"
     pagecolor="#ffffff"
     bordercolor="#666666"
     borderopacity="1.0"
     inkscape:pageopacity="0.0"
     inkscape:pageshadow="2"
     inkscape:zoom="7.2707335"
     inkscape:cx="19.886558"
     inkscape:cy="17.432955"
     inkscape:document-units="mm"
     inkscape:current-layer="layer6"
     showgrid="false"
     fit-margin-top="0"
     fit-margin-left="0"
     fit-margin-right="0"
     fit-margin-bottom="0"
     inkscape:window-width="1366"
     inkscape:window-height="745"
     inkscape:window-x="-8"
     inkscape:window-y="-8"
     inkscape:window-maximized="1"
     units="px" />
  <metadata
     id="metadata5113">
    <rdf:RDF>
      <cc:Work
         rdf:about="">
        <dc:format>image/svg+xml</dc:format>
        <dc:type
           rdf:resource="http://purl.org/dc/dcmitype/StillImage" />
        <dc:title></dc:title>
      </cc:Work>
    </rdf:RDF>
  </metadata>
  <g
     inkscape:groupmode="layer"
     id="layer6"
     inkscape:label="Layer 2">
    <g
       aria-label="i"
       transform="matrix(1.0002267,0,0,0.99977337,-62.964477,-119.20412)"
       style="font-style:normal;font-variant:normal;font-weight:400;font-size:12.11863613px;line-height:125%;font-family:Orbitron;text-align:start;letter-spacing:0px;word-spacing:0px;text-anchor:start;display:inline;fill:#000000;fill-opacity:1;stroke:none;stroke-width:0.26458433;stroke-opacity:1"
       id="text822">
      <path
         d="m 63.437222,129.05161 v -7.02881 h 0.993728 v 7.02881 z m 0,-9.33135 h 0.993728 v 0.99372 h -0.993728 z"
         style="font-style:normal;font-variant:normal;font-weight:400;font-size:12.11863613px;font-family:Orbitron;fill:#363535;stroke:none;stroke-width:0.26458433;stroke-opacity:1"
         id="path2081"
         inkscape:connector-curvature="0" />
    </g>
    <a
       id="a7506"
       target="_self"
       xlink:href="https://emiia.ru"
       style="display:inline;stroke:none;stroke-opacity:1"
       transform="translate(-63.103947,-119.06465)">
      <g
         id="text828"
         style="font-style:normal;font-variant:normal;font-weight:400;font-size:12.11863613px;line-height:125%;font-family:Orbitron;text-align:start;letter-spacing:0px;word-spacing:0px;text-anchor:start;fill:#4a99d9;fill-opacity:1;stroke:none;stroke-width:0.26458433;stroke-opacity:1"
         transform="matrix(1.0002267,0,0,0.99977336,0.13947088,-0.13947088)"
         aria-label="A ">
        <path
           inkscape:connector-curvature="0"
           id="path2084"
           style="font-style:normal;font-variant:normal;font-weight:400;font-size:12.11863613px;font-family:Orbitron;fill:#4a99d9;fill-opacity:1;stroke:none;stroke-width:0.26458433;stroke-opacity:1"
           d="m 67.439153,120.32619 h 5.816945 q 0.605932,0 1.030084,0.42415 0.424153,0.42415 0.424153,1.03008 v 7.27119 h -0.98161 v -3.18721 h -6.762199 v 3.18721 h -0.981609 v -7.27119 q 0,-0.60593 0.424152,-1.03008 0.424152,-0.42415 1.030084,-0.42415 z m -0.472627,4.5566 h 6.762199 v -3.10237 q 0,-0.19389 -0.145423,-0.3272 -0.133305,-0.14542 -0.327204,-0.14542 h -5.816945 q -0.193898,0 -0.339322,0.14542 -0.133305,0.13331 -0.133305,0.3272 z" />
      </g>
    </a>
    <path
       id="path830"
       d="m 0.560176,10.59141 h 0.861987 c 0.06183,0 0.112741,0.0219 0.152757,0.0658 0.04365,0.0401 0.06546,0.0913 0.06546,0.15335 v 1.08061 H 1.491262 V 11.41656 H 0.491069 v 0.47461 H 0.345587 v -1.08061 c 0,-0.0621 0.01818,-0.11322 0.06185,-0.15335 0.04002,-0.0439 0.09093,-0.0658 0.152755,-0.0658 z m -0.06911,0.67905 H 1.49126 v -0.46 c 0,-0.0181 -0.0073,-0.0365 -0.02182,-0.0476 -0.01085,-0.0147 -0.0291,-0.0218 -0.04728,-0.0218 H 0.560177 c -0.01818,0 -0.03273,0.007 -0.04728,0.0218 -0.01453,0.0105 -0.02182,0.0292 -0.02182,0.0476 z M 3.135213,10.74108 H 2.05864 c -0.01818,0 -0.03637,0.007 -0.04728,0.0219 -0.01454,0.0105 -0.02182,0.0292 -0.02182,0.0475 v 0.86156 c 0,0.0219 0.0073,0.0365 0.02182,0.0511 0.01086,0.0147 0.0291,0.022 0.04728,0.022 h 1.076572 v 0.14604 H 2.05864 c -0.05821,0 -0.109112,-0.0219 -0.152757,-0.0621 -0.04365,-0.0439 -0.06546,-0.095 -0.06546,-0.15334 v -0.86521 c 0,-0.0621 0.02182,-0.11322 0.06546,-0.15335 0.04364,-0.0439 0.09455,-0.0656 0.152757,-0.0656 h 1.076572 z m 0.120019,-0.14967 h 1.294794 v 0.14967 H 3.97537 v 1.15 H 3.829888 v -1.15 H 3.255232 Z m 2.571405,1.0806 v -1.0806 h 0.145482 v 1.08426 c 0,0.0584 -0.01818,0.10949 -0.06184,0.15332 -0.04001,0.0401 -0.09455,0.0621 -0.152757,0.0621 h -0.86198 c -0.06185,0 -0.112759,-0.022 -0.152758,-0.0621 -0.04366,-0.0439 -0.06546,-0.095 -0.06546,-0.15332 v -1.08426 h 0.149122 v 1.0806 c 0,0.0219 0.0073,0.0365 0.01818,0.051 0.01454,0.0147 0.03273,0.0219 0.05093,0.0219 h 0.861982 c 0.01818,0 0.03276,-0.007 0.04728,-0.0219 0.01455,-0.0147 0.02185,-0.0291 0.02185,-0.051 z m 0.563743,-1.0806 h 0.861986 c 0.0582,0 0.109112,0.0219 0.152758,0.0658 0.04366,0.0401 0.06183,0.0913 0.06183,0.15335 v 1.08061 H 7.321476 V 11.41656 H 6.321284 v 0.47461 H 6.172161 v -1.08061 c 0,-0.0621 0.02181,-0.11322 0.06184,-0.15335 0.04366,-0.0439 0.09455,-0.0658 0.156392,-0.0658 z m -0.06911,0.67905 h 1.000193 v -0.46 c 0,-0.0181 -0.0073,-0.0365 -0.02182,-0.0476 -0.01455,-0.0147 -0.0291,-0.0218 -0.04728,-0.0218 H 6.390377 c -0.01818,0 -0.03637,0.007 -0.05092,0.0218 -0.01086,0.0105 -0.01818,0.0292 -0.01818,0.0476 z m 1.283883,-0.67905 h 1.294793 v 0.14967 H 8.328932 v 1.15 H 8.17981 v -1.15 H 7.605155 Z m 1.640315,0 h 0.865622 c 0.05821,0 0.109111,0.0219 0.152757,0.0658 0.04002,0.0401 0.06184,0.0913 0.06184,0.15335 v 0.86521 c 0,0.0585 -0.02184,0.10947 -0.06184,0.15334 -0.04365,0.0401 -0.09455,0.0621 -0.152757,0.0621 H 9.245468 c -0.05819,0 -0.109111,-0.0219 -0.152756,-0.0621 -0.04002,-0.0439 -0.06183,-0.095 -0.06183,-0.15334 v -0.86521 c 0,-0.0621 0.02181,-0.11322 0.06183,-0.15335 0.04366,-0.0439 0.09455,-0.0658 0.152756,-0.0658 z m 0.0037,1.15364 h 0.858347 c 0.02182,0 0.03637,-0.007 0.05092,-0.0219 0.01456,-0.0147 0.02185,-0.0292 0.02185,-0.0511 V 10.8105 c 0,-0.0182 -0.0073,-0.0365 -0.02185,-0.0475 -0.01454,-0.0147 -0.0291,-0.0219 -0.05092,-0.0219 H 9.249168 c -0.02182,0 -0.03637,0.007 -0.05092,0.0219 -0.01454,0.0104 -0.02182,0.0292 -0.02182,0.0475 v 0.86155 c 0,0.0219 0.0073,0.0365 0.02182,0.0511 0.01455,0.0147 0.0291,0.0219 0.05092,0.0219 z m 2.564131,-0.93459 v 0.37967 c 0,0.0621 -0.02184,0.11322 -0.06184,0.15332 -0.04366,0.0439 -0.09457,0.0658 -0.152758,0.0658 h -0.200016 l 0.407351,0.4819 H 11.61325 l -0.403714,-0.48188 h -0.472814 c -0.01086,0 -0.03273,-0.005 -0.06911,-0.007 v 0.4892 h -0.149118 v -1.29626 h 1.080207 c 0.0582,0 0.109113,0.0219 0.152758,0.0621 0.04001,0.0439 0.06183,0.095 0.06183,0.15332 z m -1.076572,0.44902 h 0.861985 c 0.01818,0 0.03275,-0.007 0.04728,-0.0182 0.01455,-0.0145 0.01818,-0.0291 0.01818,-0.0475 v -0.37967 c 0,-0.0218 -0.0037,-0.0365 -0.01818,-0.051 -0.01455,-0.0147 -0.0291,-0.0219 -0.04728,-0.0219 h -0.861985 c -0.01818,0 -0.03638,0.007 -0.04728,0.0219 -0.01455,0.0147 -0.02183,0.0292 -0.02183,0.051 v 0.37967 c 0,0.0182 0.0073,0.0327 0.02183,0.0475 0.01086,0.0104 0.0291,0.0182 0.04728,0.0182 z"
       style="display:inline;fill:#363535;fill-opacity:1;fill-rule:nonzero;stroke:none;stroke-width:0.10000039;stroke-linecap:butt;stroke-linejoin:miter;stroke-miterlimit:4;stroke-dasharray:none;stroke-opacity:1"
       inkscape:connector-curvature="0" />
    <rect
       style="display:inline;opacity:1;fill:none;fill-opacity:1;fill-rule:evenodd;stroke:none;stroke-width:0.10000043;stroke-linecap:round;stroke-linejoin:round;stroke-miterlimit:4;stroke-dasharray:none;stroke-dashoffset:0;stroke-opacity:1;paint-order:markers fill stroke"
       id="rect7511"
       width="12.737247"
       height="12.239457"
       x="-0.30956179"
       y="0.10808636"
       rx="1.1363517"
       ry="1.4336081" />
  </g>
</svg>
