<?xml version="1.0" encoding="UTF-8" standalone="no"?>
<!-- Created with Inkscape (http://www.inkscape.org/) -->

<svg
   xmlns:dc="http://purl.org/dc/elements/1.1/"
   xmlns:cc="http://creativecommons.org/ns#"
   xmlns:rdf="http://www.w3.org/1999/02/22-rdf-syntax-ns#"
   xmlns:svg="http://www.w3.org/2000/svg"
   xmlns="http://www.w3.org/2000/svg"
   xmlns:sodipodi="http://sodipodi.sourceforge.net/DTD/sodipodi-0.dtd"
   xmlns:inkscape="http://www.inkscape.org/namespaces/inkscape"
   width="58.09211"
   height="44.769344"
   viewBox="0 0 15.370264 11.845222"
   version="1.1"
   id="svg5116"
   inkscape:version="0.92.2 (5c3e80d, 2017-08-06)"
   sodipodi:docname="ialogo1.svg">
  <defs
     id="defs5110" />
  <sodipodi:namedview
     id="base"
     pagecolor="#ffffff"
     bordercolor="#666666"
     borderopacity="1.0"
     inkscape:pageopacity="0.0"
     inkscape:pageshadow="2"
     inkscape:zoom="3.7941162"
     inkscape:cx="-20.393059"
     inkscape:cy="2.9021408"
     inkscape:document-units="mm"
     inkscape:current-layer="layer1"
     showgrid="false"
     fit-margin-top="0"
     fit-margin-left="0"
     fit-margin-right="0"
     fit-margin-bottom="0"
     inkscape:window-width="1366"
     inkscape:window-height="745"
     inkscape:window-x="-8"
     inkscape:window-y="-8"
     inkscape:window-maximized="1"
     units="px" />
  <metadata
     id="metadata5113">
    <rdf:RDF>
      <cc:Work
         rdf:about="">
        <dc:format>image/svg+xml</dc:format>
        <dc:type
           rdf:resource="http://purl.org/dc/dcmitype/StillImage" />
        <dc:title></dc:title>
      </cc:Work>
    </rdf:RDF>
  </metadata>
  <g
     inkscape:label="Layer 1"
     inkscape:groupmode="layer"
     id="layer1"
     transform="translate(-63.140337,-119.69313)">
    <g
       aria-label="i"
       transform="scale(1.0002267,0.99977336)"
       style="font-style:normal;font-variant:normal;font-weight:400;font-size:12.11863613px;line-height:125%;font-family:Orbitron;text-align:start;letter-spacing:0px;word-spacing:0px;text-anchor:start;fill:#000000;fill-opacity:1;stroke:none;stroke-width:0.26458433"
       id="text822">
      <path
         d="m 63.437222,129.05161 v -7.02881 h 0.993728 v 7.02881 z m 0,-9.33135 h 0.993728 v 0.99372 h -0.993728 z"
         style="font-style:normal;font-variant:normal;font-weight:400;font-size:12.11863613px;font-family:Orbitron;fill:#363535;stroke-width:0.26458433"
         id="path2081" />
    </g>
    <g
       aria-label="A "
       transform="scale(1.0002267,0.99977336)"
       style="font-style:normal;font-variant:normal;font-weight:400;font-size:12.11863613px;line-height:125%;font-family:Orbitron;text-align:start;letter-spacing:0px;word-spacing:0px;text-anchor:start;fill:#000000;fill-opacity:1;stroke:none;stroke-width:0.26458433"
       id="text828">
      <path
         d="m 67.439153,120.32619 h 5.816945 q 0.605932,0 1.030084,0.42415 0.424153,0.42415 0.424153,1.03008 v 7.27119 h -0.98161 v -3.18721 h -6.762199 v 3.18721 h -0.981609 v -7.27119 q 0,-0.60593 0.424152,-1.03008 0.424152,-0.42415 1.030084,-0.42415 z m -0.472627,4.5566 h 6.762199 v -3.10237 q 0,-0.19389 -0.145423,-0.3272 -0.133305,-0.14542 -0.327204,-0.14542 h -5.816945 q -0.193898,0 -0.339322,0.14542 -0.133305,0.13331 -0.133305,0.3272 z"
         style="font-style:normal;font-variant:normal;font-weight:400;font-size:12.11863613px;font-family:Orbitron;fill:#4a99d9;stroke-width:0.26458433"
         id="path2084" />
    </g>
    <path
       id="path830"
       d="m 63.427955,129.79553 h 1.155322 c 0.08287,0 0.15111,0.0294 0.204741,0.0882 0.0585,0.0537 0.08774,0.12231 0.08774,0.20553 v 1.44835 h -0.199867 v -0.63612 h -1.340563 v 0.63612 h -0.194991 v -1.44835 c 0,-0.0832 0.02438,-0.15175 0.0829,-0.20553 0.05363,-0.0589 0.121868,-0.0882 0.204739,-0.0882 z m -0.09263,0.91012 h 1.340563 v -0.61651 c 0,-0.0243 -0.0097,-0.0489 -0.02925,-0.0637 -0.01455,-0.0196 -0.039,-0.0293 -0.06337,-0.0293 h -1.155317 c -0.02438,0 -0.04387,0.009 -0.06337,0.0293 -0.01949,0.0139 -0.02925,0.0392 -0.02925,0.0637 z m 3.543961,-0.70951 h -1.442935 c -0.02438,0 -0.04874,0.009 -0.06336,0.0294 -0.01949,0.0139 -0.02925,0.0392 -0.02925,0.0636 v 1.15474 c 0,0.0294 0.0097,0.0489 0.02925,0.0685 0.01455,0.0196 0.039,0.0294 0.06336,0.0294 h 1.442933 v 0.19574 h -1.442933 c -0.07801,0 -0.146242,-0.0294 -0.204741,-0.0832 -0.0585,-0.0589 -0.08774,-0.12733 -0.08774,-0.2055 v -1.15965 c 0,-0.0832 0.02925,-0.15175 0.08774,-0.20553 0.0585,-0.0589 0.126736,-0.088 0.204741,-0.088 h 1.442933 z m 0.160863,-0.20061 h 1.735416 v 0.20061 h -0.770213 v 1.54134 h -0.19499 v -1.54134 h -0.770213 z m 3.446463,1.44834 v -1.44834 h 0.194989 v 1.45325 c 0,0.0782 -0.02438,0.14674 -0.08287,0.20549 -0.05363,0.0537 -0.126736,0.0832 -0.20474,0.0832 h -1.155317 c -0.0829,0 -0.151129,-0.0294 -0.204742,-0.0832 -0.05852,-0.0589 -0.08774,-0.12732 -0.08774,-0.20549 v -1.45325 h 0.199869 v 1.44834 c 0,0.0294 0.0097,0.0489 0.02438,0.0684 0.01951,0.0196 0.04386,0.0293 0.06825,0.0293 h 1.155318 c 0.02438,0 0.04389,-0.009 0.06337,-0.0293 0.01951,-0.0196 0.02928,-0.0391 0.02928,-0.0684 z m 0.755587,-1.44834 h 1.155323 c 0.07799,0 0.146242,0.0294 0.204741,0.0882 0.05852,0.0537 0.08287,0.12231 0.08287,0.20553 v 1.44835 h -0.194985 v -0.63612 h -1.340562 v 0.63612 h -0.199865 v -1.44835 c 0,-0.0832 0.02924,-0.15175 0.08287,-0.20553 0.05852,-0.0589 0.126736,-0.0882 0.209614,-0.0882 z m -0.09263,0.91012 h 1.340565 v -0.61651 c 0,-0.0243 -0.0097,-0.0489 -0.02925,-0.0637 -0.01951,-0.0196 -0.039,-0.0293 -0.06337,-0.0293 h -1.155323 c -0.02438,0 -0.04875,0.009 -0.06824,0.0293 -0.01455,0.0139 -0.02438,0.0392 -0.02438,0.0637 z m 1.720795,-0.91012 h 1.735417 v 0.20061 h -0.76533 v 1.54134 h -0.199869 v -1.54134 h -0.770213 z m 2.198521,0 h 1.160196 c 0.07801,0 0.146243,0.0294 0.204741,0.0882 0.05363,0.0537 0.08289,0.12231 0.08289,0.20553 v 1.15965 c 0,0.0783 -0.02927,0.14672 -0.08289,0.2055 -0.0585,0.0537 -0.126737,0.0832 -0.204741,0.0832 h -1.160196 c -0.07799,0 -0.146243,-0.0293 -0.204739,-0.0832 -0.05363,-0.0589 -0.08287,-0.12733 -0.08287,-0.2055 v -1.15965 c 0,-0.0832 0.02924,-0.15175 0.08287,-0.20553 0.05852,-0.0589 0.126737,-0.0882 0.204739,-0.0882 z m 0.005,1.54623 h 1.150447 c 0.02925,0 0.04875,-0.009 0.06824,-0.0294 0.01951,-0.0196 0.02928,-0.0392 0.02928,-0.0684 v -1.15474 c 0,-0.0243 -0.0097,-0.0489 -0.02928,-0.0636 -0.01949,-0.0196 -0.039,-0.0294 -0.06824,-0.0294 h -1.150447 c -0.02925,0 -0.04875,0.009 -0.06824,0.0294 -0.01949,0.0139 -0.02925,0.0392 -0.02925,0.0636 v 1.15474 c 0,0.0294 0.0097,0.0489 0.02925,0.0684 0.01951,0.0196 0.039,0.0294 0.06824,0.0294 z m 3.436716,-1.25262 v 0.50885 c 0,0.0832 -0.02928,0.15175 -0.08287,0.2055 -0.05852,0.0589 -0.126754,0.0882 -0.204742,0.0882 h -0.268071 l 0.545974,0.6459 h -0.258423 l -0.5411,-0.64588 h -0.633714 c -0.01455,0 -0.04386,-0.006 -0.09263,-0.009 v 0.65568 H 76.775162 V 129.801 h 1.447807 c 0.07799,0 0.146243,0.0294 0.204741,0.0832 0.05363,0.0589 0.08287,0.12732 0.08287,0.2055 z m -1.442933,0.60182 h 1.155321 c 0.02438,0 0.04389,-0.009 0.06337,-0.0243 0.01951,-0.0194 0.02438,-0.0391 0.02438,-0.0636 v -0.50887 c 0,-0.0293 -0.005,-0.0489 -0.02438,-0.0684 -0.01951,-0.0196 -0.039,-0.0294 -0.06337,-0.0294 h -1.155321 c -0.02438,0 -0.04875,0.009 -0.06337,0.0294 -0.01951,0.0196 -0.02926,0.0392 -0.02926,0.0684 v 0.50887 c 0,0.0243 0.0097,0.044 0.02926,0.0636 0.01455,0.0139 0.039,0.0243 0.06337,0.0243 z"
       style="fill:#363535;fill-opacity:1;fill-rule:nonzero;stroke:none;stroke-width:0.1000004;stroke-linecap:butt;stroke-linejoin:miter;stroke-miterlimit:4;stroke-dasharray:none;stroke-opacity:1"
       inkscape:connector-curvature="0" />
  </g>
</svg>
