<?xml version="1.0" encoding="UTF-8" standalone="no"?>
<!-- Created with Inkscape (http://www.inkscape.org/) -->

<svg
   xmlns:dc="http://purl.org/dc/elements/1.1/"
   xmlns:cc="http://creativecommons.org/ns#"
   xmlns:rdf="http://www.w3.org/1999/02/22-rdf-syntax-ns#"
   xmlns:svg="http://www.w3.org/2000/svg"
   xmlns="http://www.w3.org/2000/svg"
   xmlns:sodipodi="http://sodipodi.sourceforge.net/DTD/sodipodi-0.dtd"
   xmlns:inkscape="http://www.inkscape.org/namespaces/inkscape"
   width="13.82001mm"
   height="15.90902mm"
   viewBox="0 0 13.82001 15.90902"
   version="1.1"
   id="svg12175"
   inkscape:version="0.92.2 (5c3e80d, 2017-08-06)"
   sodipodi:docname="ialogo1.svg">
  <defs
     id="defs12169" />
  <sodipodi:namedview
     id="base"
     pagecolor="#ffffff"
     bordercolor="#666666"
     borderopacity="1.0"
     inkscape:pageopacity="0.0"
     inkscape:pageshadow="2"
     inkscape:zoom="6.51875"
     inkscape:cx="-8.1149769"
     inkscape:cy="27.639445"
     inkscape:document-units="mm"
     inkscape:current-layer="layer1"
     showgrid="false"
     fit-margin-top="0"
     fit-margin-left="0"
     fit-margin-right="0"
     fit-margin-bottom="0"
     inkscape:window-width="1366"
     inkscape:window-height="745"
     inkscape:window-x="-8"
     inkscape:window-y="-8"
     inkscape:window-maximized="1" />
  <metadata
     id="metadata12172">
    <rdf:RDF>
      <cc:Work
         rdf:about="">
        <dc:format>image/svg+xml</dc:format>
        <dc:type
           rdf:resource="http://purl.org/dc/dcmitype/StillImage" />
        <dc:title></dc:title>
      </cc:Work>
    </rdf:RDF>
  </metadata>
  <g
     inkscape:label="Layer 1"
     inkscape:groupmode="layer"
     id="layer1"
     transform="translate(-47.910111,-140.23725)">
    <g
       aria-label="A "
       transform="matrix(1.1337958,0,0,1.1332822,-26.064345,4.3136057)"
       style="font-style:normal;font-variant:normal;font-weight:400;font-size:15.5569849px;line-height:125%;font-family:Orbitron;text-align:start;letter-spacing:0px;word-spacing:0px;text-anchor:start;fill:#000000;fill-opacity:1;stroke:none;stroke-width:0.18668896"
       id="text828-1">
      <path
         d="m 67.604791,120.4981 h 7.467353 q 0.777849,0 1.322343,0.54449 0.544495,0.5445 0.544495,1.32235 v 9.33419 h -1.260116 v -4.09149 h -8.680798 v 4.09149 h -1.260115 v -9.33419 q 0,-0.77785 0.544494,-1.32235 0.544495,-0.54449 1.322344,-0.54449 z m -0.606723,5.84942 h 8.680798 v -3.98258 q 0,-0.24892 -0.186684,-0.42004 -0.171127,-0.18669 -0.420038,-0.18669 h -7.467353 q -0.248912,0 -0.435596,0.18669 -0.171127,0.17112 -0.171127,0.42004 z"
         style="font-style:normal;font-variant:normal;font-weight:400;font-size:15.5569849px;font-family:Orbitron;fill:#4a99d9;stroke-width:0.18668896"
         id="path2078"
         inkscape:connector-curvature="0" />
    </g>
    <path
       id="path830-3"
       d="m 48.679169,154.3279 h 0.96361 c 0.06912,0 0.126041,0.0245 0.170768,0.0735 0.0488,0.0448 0.07318,0.10204 0.07318,0.17141 v 1.20804 h -0.166701 v -0.53056 h -1.118114 v 0.53056 h -0.162634 v -1.20804 c 0,-0.0694 0.02034,-0.12651 0.06912,-0.17141 0.04473,-0.049 0.101642,-0.0735 0.170764,-0.0735 z m -0.07725,0.75909 h 1.118112 v -0.51421 c 0,-0.0204 -0.0082,-0.0407 -0.02441,-0.0533 -0.01223,-0.0163 -0.03254,-0.0246 -0.05285,-0.0246 h -0.963605 c -0.02034,0 -0.0366,0.008 -0.05285,0.0246 -0.01626,0.0123 -0.02441,0.0327 -0.02441,0.0533 z m 2.955885,-0.59178 h -1.203496 c -0.02034,0 -0.04066,0.008 -0.05285,0.0246 -0.01626,0.0123 -0.02441,0.0325 -0.02441,0.053 v 0.96315 c 0,0.0245 0.0082,0.0407 0.02441,0.0571 0.01223,0.0162 0.03253,0.0246 0.05285,0.0246 h 1.203496 v 0.16325 h -1.203496 c -0.06506,0 -0.121975,-0.0246 -0.170769,-0.0694 -0.0488,-0.049 -0.07317,-0.10607 -0.07317,-0.1714 v -0.96725 c 0,-0.0695 0.02441,-0.12651 0.07317,-0.17139 0.0488,-0.049 0.105714,-0.0735 0.170769,-0.0735 h 1.203496 z m 0.134174,-0.16731 h 1.447448 v 0.16731 h -0.642405 v 1.28557 h -0.162635 v -1.28557 h -0.642408 z m 2.874568,1.20802 v -1.20802 h 0.162635 v 1.2121 c 0,0.0652 -0.02034,0.12244 -0.06912,0.1714 -0.04474,0.0447 -0.105713,0.0695 -0.170765,0.0695 h -0.963609 c -0.06912,0 -0.126042,-0.0245 -0.170766,-0.0695 -0.0488,-0.0491 -0.07319,-0.10617 -0.07319,-0.1714 v -1.2121 h 0.166706 v 1.20802 c 0,0.0246 0.0082,0.0407 0.02034,0.0571 0.01626,0.0163 0.03658,0.0246 0.05691,0.0246 h 0.963606 c 0.02034,0 0.03659,-0.008 0.05285,-0.0246 0.01626,-0.0163 0.02441,-0.0327 0.02441,-0.0571 z m 0.630208,-1.20802 h 0.963612 c 0.06505,0 0.121973,0.0245 0.170767,0.0735 0.0488,0.0448 0.06912,0.10204 0.06912,0.17141 v 1.20804 h -0.162639 v -0.53056 h -1.118116 v 0.53056 h -0.166701 v -1.20804 c 0,-0.0694 0.02439,-0.12651 0.06912,-0.17141 0.04881,-0.049 0.105714,-0.0735 0.17483,-0.0735 z m -0.07726,0.75909 h 1.118116 v -0.51421 c 0,-0.0204 -0.0082,-0.0407 -0.02441,-0.0533 -0.01626,-0.0163 -0.03253,-0.0246 -0.05285,-0.0246 h -0.963611 c -0.02034,0 -0.04066,0.008 -0.05691,0.0246 -0.01223,0.0123 -0.02034,0.0327 -0.02034,0.0533 z m 1.435252,-0.75909 h 1.447449 v 0.16731 h -0.63834 v 1.28557 h -0.166708 v -1.28557 h -0.642405 z m 1.833706,0 h 0.967676 c 0.06506,0 0.121974,0.0245 0.170765,0.0735 0.04473,0.0448 0.06912,0.10204 0.06912,0.17141 v 0.96723 c 0,0.0653 -0.02441,0.12243 -0.06912,0.1714 -0.0488,0.0447 -0.105713,0.0695 -0.170765,0.0695 h -0.967674 c -0.06506,0 -0.121974,-0.0245 -0.170765,-0.0695 -0.04473,-0.049 -0.06913,-0.10606 -0.06913,-0.1714 v -0.96723 c 0,-0.0694 0.0244,-0.12651 0.06913,-0.17141 0.0488,-0.049 0.105714,-0.0735 0.170765,-0.0735 z m 0.0044,1.28964 h 0.959544 c 0.02441,0 0.04066,-0.008 0.05691,-0.0246 0.01626,-0.0163 0.02441,-0.0326 0.02441,-0.0571 v -0.96314 c 0,-0.0204 -0.0082,-0.0407 -0.02441,-0.053 -0.01626,-0.0163 -0.03252,-0.0246 -0.05691,-0.0246 h -0.959544 c -0.02441,0 -0.04066,0.008 -0.05691,0.0246 -0.01626,0.0124 -0.02441,0.0327 -0.02441,0.053 v 0.96314 c 0,0.0245 0.0082,0.0407 0.02441,0.0571 0.01626,0.0163 0.03252,0.0246 0.05691,0.0246 z m 2.866436,-1.04476 v 0.42443 c 0,0.0695 -0.02441,0.12651 -0.06912,0.17139 -0.0488,0.049 -0.105714,0.0735 -0.170767,0.0735 h -0.22365 l 0.45538,0.53873 h -0.215585 l -0.451312,-0.53871 h -0.52856 c -0.01223,0 -0.0366,-0.004 -0.07725,-0.008 v 0.54686 h -0.166696 v -1.44909 h 1.207559 c 0.06506,0 0.121975,0.0246 0.170767,0.0695 0.04473,0.049 0.06912,0.10606 0.06912,0.17142 z m -1.203494,0.50196 h 0.963608 c 0.02035,0 0.03659,-0.008 0.05285,-0.0202 0.01626,-0.0162 0.02034,-0.0326 0.02034,-0.053 v -0.42444 c 0,-0.0245 -0.0044,-0.0407 -0.02034,-0.0571 -0.01626,-0.0163 -0.03252,-0.0246 -0.05285,-0.0246 h -0.96364 c -0.02034,0 -0.04066,0.008 -0.05285,0.0246 -0.01626,0.0163 -0.02441,0.0327 -0.02441,0.0571 v 0.42444 c 0,0.0204 0.0082,0.0367 0.02441,0.053 0.01223,0.0123 0.03252,0.0202 0.05285,0.0202 z"
       style="fill:#d3d3d3;fill-opacity:1;fill-rule:nonzero;stroke:none;stroke-width:0.06161025;stroke-linecap:butt;stroke-linejoin:miter;stroke-miterlimit:4;stroke-dasharray:none;stroke-opacity:1"
       inkscape:connector-curvature="0" />
  </g>
</svg>
