<?xml version="1.0" encoding="UTF-8" standalone="no"?>
<!-- Created with Inkscape (http://www.inkscape.org/) -->

<svg
   xmlns:dc="http://purl.org/dc/elements/1.1/"
   xmlns:cc="http://creativecommons.org/ns#"
   xmlns:rdf="http://www.w3.org/1999/02/22-rdf-syntax-ns#"
   xmlns:svg="http://www.w3.org/2000/svg"
   xmlns="http://www.w3.org/2000/svg"
   xmlns:sodipodi="http://sodipodi.sourceforge.net/DTD/sodipodi-0.dtd"
   xmlns:inkscape="http://www.inkscape.org/namespaces/inkscape"
   width="46.09211"
   height="45.769341"
   viewBox="0 0 12.195256 12.109804"
   version="1.1"
   id="svg5116"
   inkscape:version="0.92.2 (5c3e80d, 2017-08-06)"
   sodipodi:docname="ialogo1.svg">
  <defs
     id="defs5110" />
  <sodipodi:namedview
     id="base"
     pagecolor="#ffffff"
     bordercolor="#666666"
     borderopacity="1.0"
     inkscape:pageopacity="0.0"
     inkscape:pageshadow="2"
     inkscape:zoom="8.8331768"
     inkscape:cx="27.788433"
     inkscape:cy="21.133492"
     inkscape:document-units="mm"
     inkscape:current-layer="layer1"
     showgrid="false"
     fit-margin-top="0"
     fit-margin-left="0"
     fit-margin-right="0"
     fit-margin-bottom="0"
     inkscape:window-width="1366"
     inkscape:window-height="745"
     inkscape:window-x="-8"
     inkscape:window-y="-8"
     inkscape:window-maximized="1"
     units="px" />
  <metadata
     id="metadata5113">
    <rdf:RDF>
      <cc:Work
         rdf:about="">
        <dc:format>image/svg+xml</dc:format>
        <dc:type
           rdf:resource="http://purl.org/dc/dcmitype/StillImage" />
        <dc:title></dc:title>
      </cc:Work>
    </rdf:RDF>
  </metadata>
  <g
     inkscape:label="Layer 1"
     inkscape:groupmode="layer"
     id="layer1"
     transform="translate(-63.140337,-119.42855)">
    <g
       aria-label="i"
       transform="matrix(1.0002267,0,0,0.99977336,0.13947088,-0.13947088)"
       style="font-style:normal;font-variant:normal;font-weight:400;font-size:12.11863613px;line-height:125%;font-family:Orbitron;text-align:start;letter-spacing:0px;word-spacing:0px;text-anchor:start;fill:#000000;fill-opacity:1;stroke:none;stroke-width:0.26458433"
       id="text822">
      <path
         d="m 63.437222,129.05161 v -7.02881 h 0.993728 v 7.02881 z m 0,-9.33135 h 0.993728 v 0.99372 h -0.993728 z"
         style="font-style:normal;font-variant:normal;font-weight:400;font-size:12.11863613px;font-family:Orbitron;fill:#363535;stroke-width:0.26458433"
         id="path2081"
         inkscape:connector-curvature="0" />
    </g>
    <g
       aria-label="A "
       transform="matrix(1.0002267,0,0,0.99977336,0.13947088,-0.13947088)"
       style="font-style:normal;font-variant:normal;font-weight:400;font-size:12.11863613px;line-height:125%;font-family:Orbitron;text-align:start;letter-spacing:0px;word-spacing:0px;text-anchor:start;fill:#000000;fill-opacity:1;stroke:none;stroke-width:0.26458433"
       id="text828">
      <path
         d="m 67.439153,120.32619 h 5.816945 q 0.605932,0 1.030084,0.42415 0.424153,0.42415 0.424153,1.03008 v 7.27119 h -0.98161 v -3.18721 h -6.762199 v 3.18721 h -0.981609 v -7.27119 q 0,-0.60593 0.424152,-1.03008 0.424152,-0.42415 1.030084,-0.42415 z m -0.472627,4.5566 h 6.762199 v -3.10237 q 0,-0.19389 -0.145423,-0.3272 -0.133305,-0.14542 -0.327204,-0.14542 h -5.816945 q -0.193898,0 -0.339322,0.14542 -0.133305,0.13331 -0.133305,0.3272 z"
         style="font-style:normal;font-variant:normal;font-weight:400;font-size:12.11863613px;font-family:Orbitron;fill:#4a99d9;stroke-width:0.26458433"
         id="path2084"
         inkscape:connector-curvature="0" />
    </g>
    <path
       id="path830"
       d="m 63.662444,129.65606 h 0.855232 c 0.06135,0 0.111858,0.0217 0.15156,0.0653 0.04331,0.0398 0.06495,0.0906 0.06495,0.15215 v 1.07214 h -0.147952 v -0.47089 h -0.992356 v 0.47089 h -0.144342 v -1.07214 c 0,-0.0616 0.01804,-0.11234 0.06137,-0.15215 0.03971,-0.0436 0.09022,-0.0653 0.151558,-0.0653 z m -0.06857,0.67373 h 0.992357 v -0.45639 c 0,-0.018 -0.0072,-0.0362 -0.02165,-0.0472 -0.01077,-0.0146 -0.02887,-0.0216 -0.04691,-0.0216 h -0.855228 c -0.01804,0 -0.03247,0.007 -0.04691,0.0216 -0.01442,0.0104 -0.02165,0.029 -0.02165,0.0472 z m 2.623428,-0.52523 h -1.068137 c -0.01804,0 -0.03608,0.007 -0.04691,0.0217 -0.01443,0.0104 -0.02165,0.029 -0.02165,0.0471 v 0.85481 c 0,0.0217 0.0072,0.0362 0.02165,0.0507 0.01077,0.0146 0.02887,0.0218 0.04691,0.0218 h 1.068136 v 0.1449 h -1.068136 c -0.05775,0 -0.108257,-0.0217 -0.15156,-0.0616 -0.04331,-0.0436 -0.06495,-0.0943 -0.06495,-0.15213 v -0.85843 c 0,-0.0616 0.02165,-0.11234 0.06495,-0.15215 0.0433,-0.0436 0.09381,-0.0651 0.15156,-0.0651 h 1.068136 z m 0.119079,-0.1485 h 1.284648 v 0.1485 h -0.570153 v 1.14099 h -0.144342 v -1.14099 h -0.570152 z m 2.551255,1.07214 v -1.07214 h 0.144342 v 1.07577 c 0,0.0579 -0.01804,0.10863 -0.06135,0.15212 -0.0397,0.0398 -0.09381,0.0616 -0.15156,0.0616 h -0.855226 c -0.06136,0 -0.111875,-0.0218 -0.151561,-0.0616 -0.04332,-0.0436 -0.06495,-0.0943 -0.06495,-0.15212 v -1.07577 h 0.147954 v 1.07214 c 0,0.0217 0.0072,0.0362 0.01804,0.0506 0.01443,0.0146 0.03247,0.0217 0.05053,0.0217 h 0.855228 c 0.01804,0 0.0325,-0.007 0.04691,-0.0217 0.01444,-0.0146 0.02168,-0.0289 0.02168,-0.0506 z m 0.559326,-1.07214 h 0.855231 c 0.05774,0 0.108257,0.0217 0.151561,0.0653 0.04332,0.0398 0.06135,0.0906 0.06135,0.15215 v 1.07214 h -0.144338 v -0.47089 h -0.992355 v 0.47089 h -0.147954 v -1.07214 c 0,-0.0616 0.02164,-0.11234 0.06135,-0.15215 0.04332,-0.0436 0.09381,-0.0653 0.155167,-0.0653 z m -0.06857,0.67373 h 0.992356 v -0.45639 c 0,-0.018 -0.0072,-0.0362 -0.02165,-0.0472 -0.01444,-0.0146 -0.02887,-0.0216 -0.04691,-0.0216 h -0.855231 c -0.01804,0 -0.03608,0.007 -0.05052,0.0216 -0.01077,0.0104 -0.01804,0.029 -0.01804,0.0472 z m 1.273823,-0.67373 h 1.284647 v 0.1485 h -0.566537 v 1.14099 h -0.147954 v -1.14099 h -0.570152 z m 1.627462,0 h 0.858839 c 0.05775,0 0.108256,0.0217 0.15156,0.0653 0.03971,0.0398 0.06136,0.0906 0.06136,0.15215 v 0.85843 c 0,0.058 -0.02167,0.10861 -0.06136,0.15213 -0.04331,0.0398 -0.09381,0.0616 -0.15156,0.0616 h -0.858839 c -0.05773,0 -0.108256,-0.0217 -0.151559,-0.0616 -0.03971,-0.0436 -0.06135,-0.0943 -0.06135,-0.15213 v -0.85843 c 0,-0.0616 0.02164,-0.11234 0.06135,-0.15215 0.04332,-0.0436 0.09381,-0.0653 0.151559,-0.0653 z m 0.0037,1.1446 h 0.851622 c 0.02165,0 0.03608,-0.007 0.05052,-0.0217 0.01444,-0.0146 0.02168,-0.029 0.02168,-0.0507 v -0.85479 c 0,-0.0181 -0.0072,-0.0362 -0.02168,-0.0471 -0.01443,-0.0146 -0.02887,-0.0217 -0.05052,-0.0217 h -0.851622 c -0.02165,0 -0.03608,0.007 -0.05052,0.0217 -0.01443,0.0103 -0.02165,0.029 -0.02165,0.0471 v 0.85479 c 0,0.0217 0.0072,0.0362 0.02165,0.0507 0.01444,0.0146 0.02887,0.0217 0.05052,0.0217 z m 2.544039,-0.92726 v 0.37669 c 0,0.0616 -0.02167,0.11233 -0.06135,0.15212 -0.04332,0.0436 -0.09383,0.0653 -0.151561,0.0653 h -0.198449 l 0.404159,0.47813 H 74.62894 l -0.400551,-0.47811 H 73.75928 c -0.01077,0 -0.03247,-0.005 -0.06857,-0.007 v 0.48537 h -0.14795 v -1.28611 h 1.071743 c 0.05774,0 0.108258,0.0217 0.151561,0.0616 0.0397,0.0436 0.06135,0.0943 0.06135,0.15212 z m -1.068136,0.4455 h 0.855231 c 0.01804,0 0.03249,-0.007 0.04691,-0.0181 0.01444,-0.0144 0.01804,-0.0289 0.01804,-0.0471 v -0.37669 c 0,-0.0216 -0.0037,-0.0362 -0.01804,-0.0506 -0.01444,-0.0146 -0.02887,-0.0217 -0.04691,-0.0217 H 73.75928 c -0.01804,0 -0.03609,0.007 -0.04691,0.0217 -0.01444,0.0146 -0.02166,0.029 -0.02166,0.0506 v 0.37669 c 0,0.0181 0.0072,0.0325 0.02166,0.0471 0.01077,0.0103 0.02887,0.0181 0.04691,0.0181 z"
       style="fill:#363535;fill-opacity:1;fill-rule:nonzero;stroke:none;stroke-width:0.1000004;stroke-linecap:butt;stroke-linejoin:miter;stroke-miterlimit:4;stroke-dasharray:none;stroke-opacity:1"
       inkscape:connector-curvature="0" />
  </g>
</svg>
