<?xml version="1.0" encoding="UTF-8" standalone="no"?>
<!-- Created with Inkscape (http://www.inkscape.org/) -->

<svg
   xmlns:dc="http://purl.org/dc/elements/1.1/"
   xmlns:cc="http://creativecommons.org/ns#"
   xmlns:rdf="http://www.w3.org/1999/02/22-rdf-syntax-ns#"
   xmlns:svg="http://www.w3.org/2000/svg"
   xmlns="http://www.w3.org/2000/svg"
   xmlns:sodipodi="http://sodipodi.sourceforge.net/DTD/sodipodi-0.dtd"
   xmlns:inkscape="http://www.inkscape.org/namespaces/inkscape"
   width="105.69061"
   height="81.451523"
   viewBox="0 0 27.964082 21.550714"
   version="1.1"
   id="svg5116"
   inkscape:version="0.92.2 (5c3e80d, 2017-08-06)"
   sodipodi:docname="ialogo.svg">
  <defs
     id="defs5110" />
  <sodipodi:namedview
     id="base"
     pagecolor="#ffffff"
     bordercolor="#666666"
     borderopacity="1.0"
     inkscape:pageopacity="0.0"
     inkscape:pageshadow="2"
     inkscape:zoom="4.4165884"
     inkscape:cx="47.731358"
     inkscape:cy="38.71645"
     inkscape:document-units="mm"
     inkscape:current-layer="layer1"
     showgrid="false"
     fit-margin-top="0"
     fit-margin-left="0"
     fit-margin-right="0"
     fit-margin-bottom="0"
     inkscape:window-width="1366"
     inkscape:window-height="745"
     inkscape:window-x="-8"
     inkscape:window-y="-8"
     inkscape:window-maximized="1"
     units="px" />
  <metadata
     id="metadata5113">
    <rdf:RDF>
      <cc:Work
         rdf:about="">
        <dc:format>image/svg+xml</dc:format>
        <dc:type
           rdf:resource="http://purl.org/dc/dcmitype/StillImage" />
        <dc:title></dc:title>
      </cc:Work>
    </rdf:RDF>
  </metadata>
  <g
     inkscape:label="Layer 1"
     inkscape:groupmode="layer"
     id="layer1"
     transform="translate(-62.381526,-119.46352)">
    <g
       aria-label="i"
       transform="matrix(1.4175681,0,0,1.4169257,-25.603979,-50.171207)"
       style="font-style:normal;font-variant:normal;font-weight:400;font-size:15.5569849px;line-height:125%;font-family:Orbitron;text-align:start;letter-spacing:0px;word-spacing:0px;text-anchor:start;fill:#000000;fill-opacity:1;stroke:none;stroke-width:0.18668896"
       id="text822">
      <path
         d="m 62.467418,131.69913 v -9.02305 h 1.275673 v 9.02305 z m 0,-11.97888 h 1.275673 v 1.27567 h -1.275673 z"
         style="font-style:normal;font-variant:normal;font-weight:400;font-size:15.5569849px;font-family:Orbitron;fill:#363535;stroke-width:0.18668896"
         id="path2075"
         inkscape:connector-curvature="0" />
    </g>
    <g
       aria-label="A "
       transform="matrix(1.4175681,0,0,1.4169257,-25.603979,-50.171207)"
       style="font-style:normal;font-variant:normal;font-weight:400;font-size:15.5569849px;line-height:125%;font-family:Orbitron;text-align:start;letter-spacing:0px;word-spacing:0px;text-anchor:start;fill:#000000;fill-opacity:1;stroke:none;stroke-width:0.18668896"
       id="text828">
      <path
         d="m 67.604791,120.4981 h 7.467353 q 0.777849,0 1.322343,0.54449 0.544495,0.5445 0.544495,1.32235 v 9.33419 h -1.260116 v -4.09149 h -8.680798 v 4.09149 h -1.260115 v -9.33419 q 0,-0.77785 0.544494,-1.32235 0.544495,-0.54449 1.322344,-0.54449 z m -0.606723,5.84942 h 8.680798 v -3.98258 q 0,-0.24892 -0.186684,-0.42004 -0.171127,-0.18669 -0.420038,-0.18669 h -7.467353 q -0.248912,0 -0.435596,0.18669 -0.171127,0.17112 -0.171127,0.42004 z"
         style="font-style:normal;font-variant:normal;font-weight:400;font-size:15.5569849px;font-family:Orbitron;fill:#4a99d9;stroke-width:0.18668896"
         id="path2078"
         inkscape:connector-curvature="0" />
    </g>
    <path
       id="path830"
       d="m 62.904814,137.84334 h 2.101937 c 0.15077,0 0.274935,0.0534 0.372497,0.16029 0.106454,0.0978 0.15962,0.2225 0.15962,0.37391 v 2.63508 h -0.363627 v -1.15733 h -2.438958 v 1.15733 h -0.354757 v -2.63508 c 0,-0.15126 0.04435,-0.27598 0.150792,-0.37391 0.09757,-0.1071 0.221718,-0.16029 0.372492,-0.16029 z m -0.16852,1.65583 h 2.438957 v -1.12167 c 0,-0.0443 -0.0178,-0.089 -0.05322,-0.11607 -0.02661,-0.0356 -0.07095,-0.0534 -0.115294,-0.0534 H 62.90481 c -0.04435,0 -0.07982,0.0161 -0.115293,0.0534 -0.03547,0.0268 -0.05322,0.0713 -0.05322,0.11607 z m 6.447718,-1.29085 h -2.625207 c -0.04435,0 -0.08869,0.0161 -0.11528,0.0534 -0.03547,0.0268 -0.05322,0.0713 -0.05322,0.11565 v 2.10091 c 0,0.0534 0.0178,0.089 0.05322,0.12443 0.0266,0.0354 0.07095,0.0534 0.11528,0.0534 h 2.625205 v 0.35611 h -2.625205 c -0.14192,0 -0.266069,-0.0534 -0.372497,-0.15126 -0.106455,-0.1071 -0.159621,-0.23154 -0.159621,-0.37391 v -2.10981 c 0,-0.15128 0.05325,-0.27596 0.159621,-0.37389 0.106454,-0.1071 0.230592,-0.16029 0.372497,-0.16029 h 2.625205 z m 0.292675,-0.36498 h 3.157338 v 0.36498 h -1.401289 v 2.80424 H 70.87798 v -2.80424 h -1.401291 z m 6.270337,2.63504 v -2.63504 h 0.354756 v 2.64397 c 0,0.14225 -0.04435,0.26704 -0.150793,0.37387 -0.09758,0.0978 -0.230592,0.15126 -0.372494,0.15126 h -2.101931 c -0.150793,0 -0.274938,-0.0534 -0.372497,-0.15126 -0.106454,-0.1072 -0.159644,-0.23153 -0.159644,-0.37387 v -2.64397 h 0.363635 v 2.63504 c 0,0.0534 0.0178,0.089 0.04435,0.12444 0.03547,0.0356 0.07981,0.0534 0.124165,0.0534 h 2.101932 c 0.04435,0 0.07982,-0.0161 0.115294,-0.0534 0.03547,-0.0356 0.05325,-0.0713 0.05325,-0.12444 z m 1.374681,-2.63504 h 2.10194 c 0.141896,0 0.266067,0.0534 0.372497,0.16029 0.106444,0.0978 0.15077,0.2225 0.15077,0.37391 v 2.63508 h -0.354759 v -1.15733 h -2.438958 v 1.15733 h -0.363624 v -2.63508 c 0,-0.15126 0.0532,-0.27598 0.150769,-0.37391 0.106455,-0.1071 0.230592,-0.16029 0.381365,-0.16029 z m -0.16852,1.65583 h 2.438962 v -1.12167 c 0,-0.0443 -0.0178,-0.089 -0.05325,-0.11607 -0.03547,-0.0356 -0.07095,-0.0534 -0.115279,-0.0534 h -2.101939 c -0.04435,0 -0.08869,0.0161 -0.12415,0.0534 -0.0266,0.0268 -0.04435,0.0713 -0.04435,0.11607 z m 3.130736,-1.65583 h 3.157338 v 0.36498 h -1.392418 v 2.80424 H 81.48521 v -2.80424 h -1.401289 z m 3.999888,0 h 2.110806 c 0.141919,0 0.26607,0.0534 0.372496,0.16029 0.09757,0.0978 0.150794,0.2225 0.150794,0.37391 v 2.10982 c 0,0.14249 -0.05325,0.26703 -0.150794,0.37387 -0.106443,0.0978 -0.230591,0.15127 -0.372496,0.15127 h -2.110806 c -0.141895,0 -0.266065,-0.0534 -0.372492,-0.15127 -0.09757,-0.1071 -0.150793,-0.23153 -0.150793,-0.37387 v -2.10982 c 0,-0.15126 0.05321,-0.27598 0.150793,-0.37391 0.106454,-0.1071 0.230592,-0.16029 0.372492,-0.16029 z m 0.0092,2.81312 h 2.093069 c 0.05325,0 0.08869,-0.0161 0.12415,-0.0534 0.03547,-0.0356 0.05325,-0.0713 0.05325,-0.12444 v -2.10089 c 0,-0.0443 -0.0178,-0.089 -0.05325,-0.11565 -0.03547,-0.0356 -0.07095,-0.0534 -0.12415,-0.0534 h -2.093069 c -0.05325,0 -0.08868,0.0161 -0.124151,0.0534 -0.03547,0.0268 -0.05325,0.0713 -0.05325,0.11565 v 2.10089 c 0,0.0534 0.0178,0.089 0.05325,0.12444 0.03547,0.0356 0.07095,0.0534 0.124151,0.0534 z m 6.2526,-2.27896 v 0.9258 c 0,0.15128 -0.05325,0.27598 -0.150771,0.37387 -0.106454,0.10709 -0.230591,0.16029 -0.372496,0.16029 h -0.487848 l 0.993321,1.17512 h -0.470163 l -0.984453,-1.17509 h -1.15296 c -0.0266,0 -0.0798,-0.01 -0.168518,-0.0161 v 1.1929 H 87.1881 v -3.16091 h 2.634073 c 0.141896,0 0.266069,0.0534 0.372495,0.15126 0.09757,0.1071 0.150792,0.23154 0.150792,0.37391 z m -2.625203,1.09494 h 2.101938 c 0.04435,0 0.07982,-0.0161 0.115293,-0.0443 0.03547,-0.0354 0.04435,-0.0713 0.04435,-0.11566 v -0.92582 c 0,-0.0534 -0.0092,-0.089 -0.04435,-0.12444 -0.03547,-0.0356 -0.07095,-0.0534 -0.115293,-0.0534 H 87.72037 c -0.04435,0 -0.08869,0.0161 -0.115293,0.0534 -0.03547,0.0356 -0.05325,0.0713 -0.05325,0.12444 v 0.92582 c 0,0.0443 0.0178,0.08 0.05325,0.11566 0.0266,0.0268 0.07095,0.0443 0.115293,0.0443 z"
       style="fill:#363535;fill-opacity:1;fill-rule:nonzero;stroke:none;stroke-width:0.1000004;stroke-linecap:butt;stroke-linejoin:miter;stroke-miterlimit:4;stroke-dasharray:none;stroke-opacity:1"
       inkscape:connector-curvature="0" />
  </g>
</svg>
