<?xml version="1.0" encoding="UTF-8" standalone="no"?>
<!-- Created with Inkscape (http://www.inkscape.org/) -->

<svg
   xmlns:dc="http://purl.org/dc/elements/1.1/"
   xmlns:cc="http://creativecommons.org/ns#"
   xmlns:rdf="http://www.w3.org/1999/02/22-rdf-syntax-ns#"
   xmlns:svg="http://www.w3.org/2000/svg"
   xmlns="http://www.w3.org/2000/svg"
   xmlns:sodipodi="http://sodipodi.sourceforge.net/DTD/sodipodi-0.dtd"
   xmlns:inkscape="http://www.inkscape.org/namespaces/inkscape"
   width="308.44861"
   height="29.125912"
   viewBox="0 0 81.6107 7.7062299"
   version="1.1"
   id="svg5116"
   inkscape:version="0.92.2 (5c3e80d, 2017-08-06)"
   sodipodi:docname="ialogoactuator3.svg">
  <defs
     id="defs5110" />
  <sodipodi:namedview
     id="base"
     pagecolor="#ffffff"
     bordercolor="#666666"
     borderopacity="1.0"
     inkscape:pageopacity="0.0"
     inkscape:pageshadow="2"
     inkscape:zoom="0.7807499"
     inkscape:cx="232.66599"
     inkscape:cy="98.955838"
     inkscape:document-units="mm"
     inkscape:current-layer="layer1"
     showgrid="false"
     fit-margin-top="0"
     fit-margin-left="0"
     fit-margin-right="0"
     fit-margin-bottom="0"
     inkscape:window-width="1366"
     inkscape:window-height="745"
     inkscape:window-x="-8"
     inkscape:window-y="-8"
     inkscape:window-maximized="1"
     units="px" />
  <metadata
     id="metadata5113">
    <rdf:RDF>
      <cc:Work
         rdf:about="">
        <dc:format>image/svg+xml</dc:format>
        <dc:type
           rdf:resource="http://purl.org/dc/dcmitype/StillImage" />
        <dc:title></dc:title>
      </cc:Work>
    </rdf:RDF>
  </metadata>
  <g
     inkscape:label="Layer 1"
     inkscape:groupmode="layer"
     id="layer1"
     transform="translate(-28.499121,-147.47911)">
    <g
       aria-label="ACTUATOR.AI"
       style="font-style:normal;font-variant:normal;font-weight:normal;font-stretch:normal;font-size:12.70005226px;line-height:1.25;font-family:Orbitron;-inkscape-font-specification:Orbitron;letter-spacing:0px;word-spacing:0px;fill:#000000;fill-opacity:1;stroke:none;stroke-width:0.26458442"
       id="text3750"
       transform="matrix(0.84276437,0,0,0.84276437,4.4810772,23.188967)">
      <path
         d="m 30.023127,147.47909 h 6.096025 q 0.635003,0 1.079505,0.4445 0.444502,0.4445 0.444502,1.0795 v 7.62003 h -1.028705 v -3.34011 h -7.086629 v 3.34011 h -1.028704 v -7.62003 q 0,-0.635 0.444502,-1.0795 0.444502,-0.4445 1.079504,-0.4445 z m -0.495302,4.77522 h 7.086629 v -3.25122 q 0,-0.2032 -0.1524,-0.3429 -0.139701,-0.1524 -0.342902,-0.1524 h -6.096025 q -0.203201,0 -0.355601,0.1524 -0.139701,0.1397 -0.139701,0.3429 z"
         style="stroke-width:0.26458442"
         id="path4559"
         inkscape:connector-curvature="0" />
      <path
         d="m 48.208809,148.50779 h -7.594632 q -0.2032,0 -0.355601,0.1524 -0.139701,0.1397 -0.139701,0.3429 v 6.09603 q 0,0.2032 0.139701,0.3556 0.152401,0.1397 0.355601,0.1397 h 7.594632 v 1.0287 h -7.594632 q -0.635002,0 -1.079504,-0.4445 -0.444502,-0.4445 -0.444502,-1.0795 v -6.09603 q 0,-0.635 0.444502,-1.0795 0.444502,-0.4445 1.079504,-0.4445 h 7.594632 z"
         style="stroke-width:0.26458442"
         id="path4561"
         inkscape:connector-curvature="0" />
      <path
         d="m 49.075786,147.47909 h 9.144038 v 1.0287 h -4.051317 v 8.11533 h -1.028704 v -8.11533 h -4.064017 z"
         style="stroke-width:0.26458442"
         id="path4563"
         inkscape:connector-curvature="0" />
      <path
         d="m 67.271984,155.09912 v -7.62003 h 1.028705 v 7.62003 q 0,0.635 -0.444502,1.0795 -0.444502,0.4445 -1.079505,0.4445 h -6.096025 q -0.635002,0 -1.079504,-0.4445 -0.444502,-0.4445 -0.444502,-1.0795 v -7.62003 h 1.028704 v 7.62003 q 0,0.2032 0.139701,0.3556 0.1524,0.1397 0.355601,0.1397 h 6.096025 q 0.203201,0 0.342902,-0.1397 0.1524,-0.1524 0.1524,-0.3556 z"
         style="stroke-width:0.26458442"
         id="path4565"
         inkscape:connector-curvature="0" />
      <path
         d="m 71.24869,147.47909 h 6.096025 q 0.635003,0 1.079505,0.4445 0.444502,0.4445 0.444502,1.0795 v 7.62003 h -1.028705 v -3.34011 h -7.086629 v 3.34011 h -1.028704 v -7.62003 q 0,-0.635 0.444502,-1.0795 0.444502,-0.4445 1.079504,-0.4445 z m -0.495302,4.77522 h 7.086629 v -3.25122 q 0,-0.2032 -0.1524,-0.3429 -0.139701,-0.1524 -0.342902,-0.1524 H 71.24869 q -0.203201,0 -0.355601,0.1524 -0.139701,0.1397 -0.139701,0.3429 z"
         style="stroke-width:0.26458442"
         id="path4567"
         inkscape:connector-curvature="0" />
      <path
         d="m 79.858529,147.47909 h 9.144038 v 1.0287 H 84.95125 v 8.11533 h -1.028704 v -8.11533 h -4.064017 z"
         style="stroke-width:0.26458442"
         id="path4569"
         inkscape:connector-curvature="0" />
      <path
         d="m 91.463401,147.47909 h 6.096025 q 0.635002,0 1.079504,0.4445 0.444502,0.4445 0.444502,1.0795 v 6.09603 q 0,0.635 -0.444502,1.0795 -0.444502,0.4445 -1.079504,0.4445 h -6.096025 q -0.635003,0 -1.079505,-0.4445 -0.444502,-0.4445 -0.444502,-1.0795 v -6.09603 q 0,-0.635 0.444502,-1.0795 0.444502,-0.4445 1.079505,-0.4445 z m 0,8.11533 h 6.096025 q 0.203201,0 0.342901,-0.1397 0.152401,-0.1524 0.152401,-0.3556 v -6.09603 q 0,-0.2032 -0.152401,-0.3429 -0.1397,-0.1524 -0.342901,-0.1524 h -6.096025 q -0.203201,0 -0.355602,0.1524 -0.1397,0.1397 -0.1397,0.3429 v 6.09603 q 0,0.2032 0.1397,0.3556 0.152401,0.1397 0.355602,0.1397 z"
         style="stroke-width:0.26458442"
         id="path4571"
         inkscape:connector-curvature="0" />
      <path
         d="m 109.61337,149.01579 v 2.67971 q 0,0.63501 -0.4445,1.07951 -0.44451,0.4445 -1.07951,0.4445 h -1.39701 l 2.87022,3.40361 h -1.35891 l -2.85751,-3.40361 h -3.35281 q -0.1143,0 -0.49531,-0.0508 v 3.45441 h -1.0287 v -9.13133 h 7.62003 q 0.635,0 1.07951,0.4445 0.4445,0.4445 0.4445,1.0795 z m -7.62003,3.16231 h 6.09602 q 0.2032,0 0.3429,-0.1397 0.1397,-0.1397 0.1397,-0.3429 v -2.67971 q 0,-0.2032 -0.1397,-0.3429 -0.1397,-0.1524 -0.3429,-0.1524 h -6.09602 q -0.20321,0 -0.35561,0.1524 -0.1397,0.1397 -0.1397,0.3429 v 2.67971 q 0,0.2032 0.1397,0.3429 0.1524,0.1397 0.35561,0.1397 z"
         style="stroke-width:0.26458442"
         id="path4573"
         inkscape:connector-curvature="0" />
      <path
         d="m 111.96565,155.58172 v 1.0414 h -1.0414 v -1.0414 z"
         style="fill:#d7d7d7;fill-opacity:1"
         id="path4575"
         inkscape:connector-curvature="0" />
      <path
         d="m 115.22758,147.47909 h 6.09602 q 0.63501,0 1.07951,0.4445 0.4445,0.4445 0.4445,1.0795 v 7.62003 h -1.0287 v -3.34011 h -7.08663 v 3.34011 h -1.02871 v -7.62003 q 0,-0.635 0.44451,-1.0795 0.4445,-0.4445 1.0795,-0.4445 z m -0.4953,4.77522 h 7.08663 v -3.25122 q 0,-0.2032 -0.1524,-0.3429 -0.1397,-0.1524 -0.34291,-0.1524 h -6.09602 q -0.2032,0 -0.3556,0.1524 -0.1397,0.1397 -0.1397,0.3429 z"
         style="fill:#d7d7d7;fill-opacity:1"
         id="path4577"
         inkscape:connector-curvature="0" />
      <path
         d="m 124.30732,156.62312 v -9.14403 h 1.02871 v 9.14403 z"
         style="fill:#d7d7d7;fill-opacity:1"
         id="path4579"
         inkscape:connector-curvature="0" />
    </g>
  </g>
</svg>
