<?xml version="1.0" encoding="UTF-8" standalone="no"?>
<!-- Created with Inkscape (http://www.inkscape.org/) -->

<svg
   xmlns:dc="http://purl.org/dc/elements/1.1/"
   xmlns:cc="http://creativecommons.org/ns#"
   xmlns:rdf="http://www.w3.org/1999/02/22-rdf-syntax-ns#"
   xmlns:svg="http://www.w3.org/2000/svg"
   xmlns="http://www.w3.org/2000/svg"
   xmlns:sodipodi="http://sodipodi.sourceforge.net/DTD/sodipodi-0.dtd"
   xmlns:inkscape="http://www.inkscape.org/namespaces/inkscape"
   width="9.2716732mm"
   height="10.98112mm"
   viewBox="0 0 9.2716731 10.98112"
   version="1.1"
   id="svg12175"
   inkscape:version="0.92.2 (5c3e80d, 2017-08-06)"
   sodipodi:docname="ialogo1.svg">
  <defs
     id="defs12169" />
  <sodipodi:namedview
     id="base"
     pagecolor="#ffffff"
     bordercolor="#666666"
     borderopacity="1.0"
     inkscape:pageopacity="0.0"
     inkscape:pageshadow="2"
     inkscape:zoom="3.259375"
     inkscape:cx="26.647575"
     inkscape:cy="-2.0627254"
     inkscape:document-units="mm"
     inkscape:current-layer="layer1"
     showgrid="false"
     fit-margin-top="0"
     fit-margin-left="0"
     fit-margin-right="0"
     fit-margin-bottom="0"
     inkscape:window-width="1366"
     inkscape:window-height="745"
     inkscape:window-x="-8"
     inkscape:window-y="-8"
     inkscape:window-maximized="1" />
  <metadata
     id="metadata12172">
    <rdf:RDF>
      <cc:Work
         rdf:about="">
        <dc:format>image/svg+xml</dc:format>
        <dc:type
           rdf:resource="http://purl.org/dc/dcmitype/StillImage" />
        <dc:title></dc:title>
      </cc:Work>
    </rdf:RDF>
  </metadata>
  <g
     inkscape:label="Layer 1"
     inkscape:groupmode="layer"
     id="layer1"
     transform="translate(-49.890449,-142.44668)">
    <g
       aria-label="A "
       transform="matrix(0.8184873,0,0,0.81811654,-3.8347512,43.86519)"
       style="font-style:normal;font-variant:normal;font-weight:400;font-size:15.5569849px;line-height:125%;font-family:Orbitron;text-align:start;letter-spacing:0px;word-spacing:0px;text-anchor:start;fill:#000000;fill-opacity:1;stroke:none;stroke-width:0.18668896"
       id="text828-1">
      <path
         d="m 67.604791,120.4981 h 7.467353 q 0.777849,0 1.322343,0.54449 0.544495,0.5445 0.544495,1.32235 v 9.33419 h -1.260116 v -4.09149 h -8.680798 v 4.09149 h -1.260115 v -9.33419 q 0,-0.77785 0.544494,-1.32235 0.544495,-0.54449 1.322344,-0.54449 z m -0.606723,5.84942 h 8.680798 v -3.98258 q 0,-0.24892 -0.186684,-0.42004 -0.171127,-0.18669 -0.420038,-0.18669 h -7.467353 q -0.248912,0 -0.435596,0.18669 -0.171127,0.17112 -0.171127,0.42004 z"
         style="font-style:normal;font-variant:normal;font-weight:400;font-size:15.5569849px;font-family:Orbitron;fill:#4a99d9;stroke-width:0.18668896"
         id="path2078"
         inkscape:connector-curvature="0" />
    </g>
    <path
       id="path830-3"
       d="m 50.070844,152.37156 h 0.69563 c 0.0499,0 0.09099,0.0177 0.123278,0.0531 0.03523,0.0323 0.05283,0.0737 0.05283,0.12374 v 0.87209 H 50.82224 v -0.38301 h -0.807166 v 0.38301 h -0.117406 v -0.87209 c 0,-0.0501 0.01468,-0.0913 0.0499,-0.12374 0.03229,-0.0354 0.07337,-0.0531 0.123274,-0.0531 z m -0.05577,0.54799 h 0.807165 v -0.37121 c 0,-0.0147 -0.0059,-0.0294 -0.01762,-0.0385 -0.0088,-0.0118 -0.02349,-0.0178 -0.03815,-0.0178 h -0.695627 c -0.01468,0 -0.02642,0.006 -0.03815,0.0178 -0.01174,0.009 -0.01762,0.0236 -0.01762,0.0385 z m 2.133853,-0.4272 h -0.868804 c -0.01468,0 -0.02935,0.006 -0.03815,0.0177 -0.01174,0.009 -0.01762,0.0235 -0.01762,0.0383 v 0.6953 c 0,0.0177 0.0059,0.0294 0.01762,0.0412 0.0088,0.0117 0.02348,0.0178 0.03815,0.0178 h 0.868804 v 0.11785 h -0.868804 c -0.04697,0 -0.08805,-0.0178 -0.123278,-0.0501 -0.03523,-0.0354 -0.05282,-0.0766 -0.05282,-0.12373 v -0.69826 c 0,-0.0502 0.01762,-0.0913 0.05282,-0.12373 0.03523,-0.0354 0.07632,-0.0531 0.123278,-0.0531 h 0.868804 z m 0.09686,-0.12079 H 53.2907 v 0.12079 h -0.463752 v 0.92805 h -0.117406 v -0.92805 h -0.463755 z m 2.075151,0.87207 v -0.87207 h 0.117407 v 0.87502 c 0,0.0471 -0.01468,0.0884 -0.0499,0.12373 -0.0323,0.0323 -0.07631,0.0502 -0.123275,0.0502 h -0.69563 c -0.0499,0 -0.09099,-0.0177 -0.123276,-0.0502 -0.03523,-0.0354 -0.05284,-0.0766 -0.05284,-0.12373 v -0.87502 h 0.120345 v 0.87207 c 0,0.0178 0.0059,0.0294 0.01468,0.0412 0.01174,0.0118 0.02641,0.0178 0.04108,0.0178 h 0.695627 c 0.01468,0 0.02642,-0.006 0.03815,-0.0178 0.01174,-0.0118 0.01762,-0.0236 0.01762,-0.0412 z m 0.454948,-0.87207 h 0.695631 c 0.04696,0 0.08805,0.0177 0.123277,0.0531 0.03523,0.0323 0.0499,0.0737 0.0499,0.12374 v 0.87209 h -0.117409 v -0.38301 h -0.807168 v 0.38301 h -0.120342 v -0.87209 c 0,-0.0501 0.01761,-0.0913 0.0499,-0.12374 0.03524,-0.0354 0.07632,-0.0531 0.126211,-0.0531 z m -0.05577,0.54799 h 0.807168 v -0.37121 c 0,-0.0147 -0.0059,-0.0294 -0.01762,-0.0385 -0.01174,-0.0118 -0.02348,-0.0178 -0.03815,-0.0178 h -0.695631 c -0.01468,0 -0.02935,0.006 -0.04108,0.0178 -0.0088,0.009 -0.01468,0.0236 -0.01468,0.0385 z m 1.036108,-0.54799 h 1.044914 v 0.12079 H 56.34032 v 0.92805 h -0.120346 v -0.92805 h -0.463753 z m 1.323753,0 h 0.698565 c 0.04697,0 0.08805,0.0177 0.123275,0.0531 0.03229,0.0323 0.0499,0.0737 0.0499,0.12374 v 0.69825 c 0,0.0471 -0.01762,0.0884 -0.0499,0.12373 -0.03523,0.0323 -0.07631,0.0502 -0.123275,0.0502 h -0.698564 c -0.04697,0 -0.08805,-0.0177 -0.123275,-0.0502 -0.03229,-0.0354 -0.04991,-0.0766 -0.04991,-0.12373 v -0.69825 c 0,-0.0501 0.01761,-0.0913 0.04991,-0.12374 0.03523,-0.0354 0.07632,-0.0531 0.123275,-0.0531 z m 0.0032,0.931 h 0.692695 c 0.01762,0 0.02935,-0.006 0.04108,-0.0178 0.01174,-0.0118 0.01762,-0.0235 0.01762,-0.0412 v -0.69529 c 0,-0.0147 -0.0059,-0.0294 -0.01762,-0.0383 -0.01174,-0.0118 -0.02348,-0.0177 -0.04108,-0.0177 h -0.692695 c -0.01762,0 -0.02935,0.006 -0.04108,0.0177 -0.01174,0.009 -0.01762,0.0236 -0.01762,0.0383 v 0.69529 c 0,0.0177 0.0059,0.0294 0.01762,0.0412 0.01174,0.0118 0.02348,0.0178 0.04108,0.0178 z m 2.069281,-0.75422 v 0.3064 c 0,0.0502 -0.01762,0.0913 -0.0499,0.12373 -0.03523,0.0354 -0.07632,0.0531 -0.123277,0.0531 h -0.161453 l 0.328739,0.3889 h -0.155631 l -0.325802,-0.38889 h -0.381568 c -0.0088,0 -0.02642,-0.003 -0.05577,-0.006 v 0.39478 H 58.10744 v -1.0461 h 0.871737 c 0.04697,0 0.08805,0.0178 0.123276,0.0502 0.03229,0.0354 0.0499,0.0766 0.0499,0.12374 z m -0.868803,0.36237 h 0.695629 c 0.01469,0 0.02641,-0.006 0.03815,-0.0146 0.01174,-0.0117 0.01468,-0.0235 0.01468,-0.0383 v -0.3064 c 0,-0.0177 -0.0032,-0.0294 -0.01468,-0.0412 -0.01174,-0.0118 -0.02348,-0.0178 -0.03815,-0.0178 h -0.695652 c -0.01468,0 -0.02935,0.006 -0.03815,0.0178 -0.01174,0.0118 -0.01762,0.0236 -0.01762,0.0412 v 0.3064 c 0,0.0147 0.0059,0.0265 0.01762,0.0383 0.0088,0.009 0.02348,0.0146 0.03815,0.0146 z"
       style="fill:#363535;fill-opacity:1;fill-rule:nonzero;stroke:#363535;stroke-width:0.014438;stroke-linecap:butt;stroke-linejoin:miter;stroke-miterlimit:4;stroke-dasharray:none;stroke-opacity:1"
       inkscape:connector-curvature="0" />
    <text
       xml:space="preserve"
       style="font-style:normal;font-variant:normal;font-weight:normal;font-stretch:normal;font-size:22.57777786px;line-height:1.25;font-family:Orbitron;-inkscape-font-specification:Orbitron;letter-spacing:0px;word-spacing:0px;fill:#000000;fill-opacity:1;stroke:none;stroke-width:0.26458332"
       x="38.858978"
       y="150.58571"
       id="text3921"><tspan
         sodipodi:role="line"
         id="tspan3919"
         x="38.858978"
         y="170.34126"
         style="stroke-width:0.26458332" /></text>
    <text
       xml:space="preserve"
       style="font-style:normal;font-variant:normal;font-weight:normal;font-stretch:normal;font-size:22.57777786px;line-height:1.25;font-family:Orbitron;-inkscape-font-specification:Orbitron;letter-spacing:0px;word-spacing:0px;fill:#000000;fill-opacity:1;stroke:none;stroke-width:0.26458332"
       x="101.32398"
       y="156.95802"
       id="text3931"><tspan
         sodipodi:role="line"
         id="tspan3929"
         x="101.32398"
         y="176.71358"
         style="stroke-width:0.26458332" /></text>
  </g>
</svg>
