<?xml version="1.0" encoding="UTF-8" standalone="no"?>
<!-- Created with Inkscape (http://www.inkscape.org/) -->

<svg
   xmlns:dc="http://purl.org/dc/elements/1.1/"
   xmlns:cc="http://creativecommons.org/ns#"
   xmlns:rdf="http://www.w3.org/1999/02/22-rdf-syntax-ns#"
   xmlns:svg="http://www.w3.org/2000/svg"
   xmlns="http://www.w3.org/2000/svg"
   xmlns:sodipodi="http://sodipodi.sourceforge.net/DTD/sodipodi-0.dtd"
   xmlns:inkscape="http://www.inkscape.org/namespaces/inkscape"
   width="256.48422"
   height="29.077787"
   viewBox="0 0 67.861733 7.693497"
   version="1.1"
   id="svg5116"
   inkscape:version="0.92.2 (5c3e80d, 2017-08-06)"
   sodipodi:docname="ialogoactuator.svg">
  <defs
     id="defs5110" />
  <sodipodi:namedview
     id="base"
     pagecolor="#ffffff"
     bordercolor="#666666"
     borderopacity="1.0"
     inkscape:pageopacity="0.0"
     inkscape:pageshadow="2"
     inkscape:zoom="1.1041471"
     inkscape:cx="128.42569"
     inkscape:cy="24.150967"
     inkscape:document-units="mm"
     inkscape:current-layer="layer1"
     showgrid="false"
     fit-margin-top="0"
     fit-margin-left="0"
     fit-margin-right="0"
     fit-margin-bottom="0"
     inkscape:window-width="1366"
     inkscape:window-height="745"
     inkscape:window-x="-8"
     inkscape:window-y="-8"
     inkscape:window-maximized="1"
     units="px" />
  <metadata
     id="metadata5113">
    <rdf:RDF>
      <cc:Work
         rdf:about="">
        <dc:format>image/svg+xml</dc:format>
        <dc:type
           rdf:resource="http://purl.org/dc/dcmitype/StillImage" />
        <dc:title></dc:title>
      </cc:Work>
    </rdf:RDF>
  </metadata>
  <g
     inkscape:label="Layer 1"
     inkscape:groupmode="layer"
     id="layer1"
     transform="translate(-34.4721,-127.69963)">
    <path
       id="path830-5"
       d="m 35.741954,127.69962 h 5.100904 c 0.365889,0 0.667156,0.1294 0.90396,0.38942 0.258293,0.23748 0.387367,0.54023 0.387367,0.90742 v 6.39472 H 41.25177 v -2.80861 h -5.918762 v 2.80861 H 34.4721 v -6.39472 c 0,-0.36743 0.107588,-0.66999 0.366001,-0.90742 0.236791,-0.25988 0.538094,-0.38942 0.903958,-0.38942 z m -0.408964,4.0184 h 5.918765 v -2.72214 c 0,-0.1074 -0.04322,-0.21628 -0.129123,-0.28161 -0.0642,-0.087 -0.172196,-0.12921 -0.279798,-0.12921 h -5.100892 c -0.107569,0 -0.193623,0.0414 -0.279768,0.12921 -0.08598,0.0621 -0.129123,0.17266 -0.129123,0.28161 z m 15.647048,-3.13267 h -6.370754 c -0.107588,0 -0.21523,0.0412 -0.279798,0.1294 -0.08603,0.0621 -0.129123,0.17266 -0.129123,0.28099 v 5.09847 c 0,0.1294 0.04322,0.2156 0.129123,0.30217 0.06424,0.087 0.172251,0.12995 0.279798,0.12995 h 6.370743 v 0.86425 h -6.370743 c -0.344463,0 -0.645675,-0.1294 -0.903954,-0.36748 -0.258297,-0.25985 -0.387373,-0.56221 -0.387373,-0.90745 v -5.12002 c 0,-0.36748 0.129124,-0.66999 0.387373,-0.90747 0.258235,-0.25984 0.559509,-0.3882 0.903954,-0.3882 h 6.370743 z m 0.710219,-0.88573 h 7.662095 v 0.88573 h -3.400594 v 6.80529 h -0.860905 v -6.80529 h -3.400596 z m 15.216591,6.39464 v -6.39464 h 0.860908 v 6.41633 c 0,0.34555 -0.107588,0.64792 -0.365946,0.90728 -0.236767,0.23749 -0.559514,0.36746 -0.903959,0.36746 h -5.100866 c -0.366005,0 -0.667261,-0.12995 -0.903961,-0.36746 -0.258356,-0.25983 -0.387371,-0.56221 -0.387371,-0.90728 v -6.41633 h 0.882446 v 6.39464 c 0,0.1294 0.04322,0.2156 0.107587,0.30184 0.08603,0.0868 0.193649,0.1294 0.301393,0.1294 h 5.100877 c 0.107569,0 0.193878,-0.0412 0.279765,-0.1294 0.08611,-0.087 0.129345,-0.17211 0.129345,-0.30184 z m 3.336017,-6.39464 h 5.100906 c 0.344399,0 0.645675,0.1294 0.90395,0.38942 0.25836,0.23748 0.365887,0.54023 0.365887,0.90742 v 6.39472 h -0.860883 v -2.80861 h -5.918749 v 2.80861 h -0.882455 v -6.39472 c 0,-0.36743 0.129087,-0.66999 0.365946,-0.90742 0.25836,-0.25988 0.559511,-0.38942 0.925457,-0.38942 z m -0.40897,4.0184 h 5.918757 v -2.72214 c 0,-0.1074 -0.04322,-0.21628 -0.129124,-0.28161 -0.08611,-0.087 -0.172251,-0.12921 -0.279798,-0.12921 h -5.100886 c -0.107587,0 -0.215231,0.0414 -0.301331,0.12921 -0.06424,0.0621 -0.107568,0.17266 -0.107568,0.28161 z m 7.597525,-4.0184 h 7.66209 v 0.88573 h -3.379044 v 6.80529 h -0.882447 v -6.80529 h -3.400584 z m 9.70676,0 h 5.122419 c 0.344466,0 0.645673,0.1294 0.903949,0.38942 0.236793,0.23748 0.365948,0.54023 0.365948,0.90742 v 5.12008 c 0,0.34613 -0.129253,0.64781 -0.365948,0.90742 -0.258294,0.2375 -0.559509,0.36746 -0.903949,0.36746 H 87.13818 c -0.344341,0 -0.64568,-0.12941 -0.903956,-0.36746 -0.236793,-0.25985 -0.365887,-0.5622 -0.365887,-0.90742 v -5.12008 c 0,-0.36743 0.129067,-0.66999 0.365887,-0.90742 0.258355,-0.25988 0.559509,-0.38942 0.903956,-0.38942 z m 0.02211,6.82688 h 5.079363 c 0.129121,0 0.215231,-0.0412 0.301332,-0.1294 0.08615,-0.087 0.129306,-0.17284 0.129306,-0.30216 v -5.09839 c 0,-0.1074 -0.04316,-0.2156 -0.129306,-0.28097 -0.08606,-0.087 -0.172256,-0.12976 -0.301332,-0.12976 h -5.079452 c -0.12912,0 -0.21523,0.0412 -0.301331,0.12976 -0.08606,0.0616 -0.12912,0.17285 -0.12912,0.28097 v 5.09839 c 0,0.12941 0.04325,0.2156 0.12912,0.30216 0.08615,0.0868 0.172255,0.1294 0.301331,0.1294 z m 15.17354,-5.53062 v 2.24673 c 0,0.36749 -0.12925,0.67001 -0.36594,0.90729 -0.25836,0.25987 -0.55963,0.38941 -0.90396,0.38941 h -1.18361 l 2.41053,2.85173 h -1.14082 l -2.38902,-2.85163 h -2.797936 c -0.06421,0 -0.193649,-0.0283 -0.408959,-0.0412 v 2.89494 h -0.882491 v -7.67083 h 6.392296 c 0.34441,0 0.64568,0.1294 0.90396,0.36747 0.23679,0.25985 0.36589,0.5622 0.36589,0.90728 z m -6.370738,2.65711 h 5.100898 c 0.10759,0 0.19383,-0.0412 0.2798,-0.10741 0.0861,-0.086 0.10759,-0.1721 0.10759,-0.28101 v -2.24676 c 0,-0.12922 -0.0221,-0.2156 -0.10759,-0.30184 -0.0862,-0.087 -0.17225,-0.1294 -0.2798,-0.1294 h -5.100951 c -0.107593,0 -0.215283,0.0414 -0.279768,0.1294 -0.08615,0.0868 -0.1292,0.17266 -0.1292,0.30184 v 2.24676 c 0,0.10741 0.04316,0.1935 0.1292,0.28101 0.06421,0.0617 0.172193,0.10741 0.279759,0.10741 z"
       style="display:inline;opacity:1;fill:#000000;fill-opacity:1;fill-rule:nonzero;stroke:none;stroke-width:0.59176391;stroke-linecap:butt;stroke-linejoin:miter;stroke-miterlimit:4;stroke-dasharray:none;stroke-opacity:1"
       inkscape:connector-curvature="0" />
  </g>
</svg>
