<?xml version="1.0" encoding="UTF-8" standalone="no"?>
<!-- Created with Inkscape (http://www.inkscape.org/) -->

<svg
   xmlns:dc="http://purl.org/dc/elements/1.1/"
   xmlns:cc="http://creativecommons.org/ns#"
   xmlns:rdf="http://www.w3.org/1999/02/22-rdf-syntax-ns#"
   xmlns:svg="http://www.w3.org/2000/svg"
   xmlns="http://www.w3.org/2000/svg"
   xmlns:sodipodi="http://sodipodi.sourceforge.net/DTD/sodipodi-0.dtd"
   xmlns:inkscape="http://www.inkscape.org/namespaces/inkscape"
   width="82.644409"
   height="94.464256"
   viewBox="0 0 21.866424 24.993665"
   version="1.1"
   id="svg5116"
   inkscape:version="0.92.2 (5c3e80d, 2017-08-06)"
   sodipodi:docname="ialogo.svg">
  <defs
     id="defs5110" />
  <sodipodi:namedview
     id="base"
     pagecolor="#ffffff"
     bordercolor="#666666"
     borderopacity="1.0"
     inkscape:pageopacity="0.0"
     inkscape:pageshadow="2"
     inkscape:zoom="4.4165884"
     inkscape:cx="5.6173961"
     inkscape:cy="35.007765"
     inkscape:document-units="mm"
     inkscape:current-layer="layer1"
     showgrid="false"
     fit-margin-top="0"
     fit-margin-left="0"
     fit-margin-right="0"
     fit-margin-bottom="0"
     inkscape:window-width="1366"
     inkscape:window-height="745"
     inkscape:window-x="-8"
     inkscape:window-y="-8"
     inkscape:window-maximized="1"
     units="px" />
  <metadata
     id="metadata5113">
    <rdf:RDF>
      <cc:Work
         rdf:about="">
        <dc:format>image/svg+xml</dc:format>
        <dc:type
           rdf:resource="http://purl.org/dc/dcmitype/StillImage" />
        <dc:title></dc:title>
      </cc:Work>
    </rdf:RDF>
  </metadata>
  <g
     inkscape:label="Layer 1"
     inkscape:groupmode="layer"
     id="layer1"
     transform="translate(-62.74097,-115.03928)">
    <g
       aria-label="A "
       transform="matrix(1.8402789,0,0,1.839445,-57.597751,-106.16608)"
       style="font-style:normal;font-variant:normal;font-weight:400;font-size:15.5569849px;line-height:125%;font-family:Orbitron;text-align:start;letter-spacing:0px;word-spacing:0px;text-anchor:start;fill:#000000;fill-opacity:1;stroke:none;stroke-width:0.18668896"
       id="text828">
      <path
         d="m 67.604791,120.4981 h 7.467353 q 0.777849,0 1.322343,0.54449 0.544495,0.5445 0.544495,1.32235 v 9.33419 h -1.260116 v -4.09149 h -8.680798 v 4.09149 h -1.260115 v -9.33419 q 0,-0.77785 0.544494,-1.32235 0.544495,-0.54449 1.322344,-0.54449 z m -0.606723,5.84942 h 8.680798 v -3.98258 q 0,-0.24892 -0.186684,-0.42004 -0.171127,-0.18669 -0.420038,-0.18669 h -7.467353 q -0.248912,0 -0.435596,0.18669 -0.171127,0.17112 -0.171127,0.42004 z"
         style="font-style:normal;font-variant:normal;font-weight:400;font-size:15.5569849px;font-family:Orbitron;fill:#4a99d9;stroke-width:0.18668896"
         id="path2078"
         inkscape:connector-curvature="0" />
    </g>
    <path
       id="path830"
       d="m 63.719424,137.3241 h 1.564048 c 0.112188,0 0.204579,0.0397 0.277175,0.11926 0.07921,0.0727 0.118772,0.16556 0.118772,0.27822 v 1.96077 h -0.270575 v -0.86117 H 63.59402 v 0.86117 h -0.263974 v -1.96077 c 0,-0.11254 0.033,-0.20535 0.112204,-0.27822 0.0726,-0.0797 0.16498,-0.11926 0.277171,-0.11926 z m -0.125396,1.2321 h 1.814825 v -0.83464 c 0,-0.033 -0.01325,-0.0662 -0.03961,-0.0864 -0.0198,-0.0265 -0.0528,-0.0398 -0.08579,-0.0398 h -1.564041 c -0.033,0 -0.05939,0.012 -0.08579,0.0398 -0.02639,0.0199 -0.03961,0.053 -0.03961,0.0864 z m 4.797737,-0.96053 h -1.953413 c -0.033,0 -0.06599,0.012 -0.08578,0.0398 -0.02639,0.0199 -0.03961,0.053 -0.03961,0.086 v 1.56329 c 0,0.0397 0.01324,0.0662 0.03961,0.0926 0.0198,0.0264 0.0528,0.0398 0.08578,0.0398 h 1.953412 v 0.26498 h -1.953412 c -0.105602,0 -0.197981,-0.0398 -0.277174,-0.11256 -0.07921,-0.0796 -0.118773,-0.17228 -0.118773,-0.27821 v -1.56991 c 0,-0.11257 0.03963,-0.20535 0.118773,-0.27822 0.07921,-0.0797 0.171583,-0.11927 0.277174,-0.11927 h 1.953412 z m 0.21778,-0.27157 h 2.349371 v 0.27157 h -1.042698 v 2.08663 h -0.263973 v -2.08663 h -1.0427 z m 4.665749,1.96072 v -1.96072 h 0.263973 v 1.96736 c 0,0.10585 -0.033,0.19871 -0.112206,0.2782 -0.07261,0.0727 -0.171583,0.11255 -0.277172,0.11255 h -1.564043 c -0.112204,0 -0.204581,-0.0397 -0.277174,-0.11255 -0.07921,-0.0798 -0.118792,-0.17228 -0.118792,-0.2782 v -1.96736 h 0.270581 v 1.96072 c 0,0.0398 0.01324,0.0662 0.033,0.0926 0.02639,0.0265 0.05939,0.0398 0.09239,0.0398 h 1.564044 c 0.033,0 0.05939,-0.012 0.08579,-0.0398 0.02639,-0.0265 0.03963,-0.053 0.03963,-0.0926 z m 1.022897,-1.96072 h 1.56405 c 0.105585,0 0.197981,0.0397 0.277175,0.11926 0.0792,0.0727 0.112187,0.16556 0.112187,0.27822 v 1.96077 h -0.263975 v -0.86117 h -1.814825 v 0.86117 H 73.90223 v -1.96077 c 0,-0.11254 0.03959,-0.20535 0.112188,-0.27822 0.07921,-0.0797 0.171583,-0.11926 0.283773,-0.11926 z m -0.125396,1.2321 h 1.814829 v -0.83464 c 0,-0.033 -0.01324,-0.0662 -0.03963,-0.0864 -0.02639,-0.0265 -0.0528,-0.0398 -0.08578,-0.0398 h -1.564049 c -0.033,0 -0.06599,0.012 -0.09238,0.0398 -0.0198,0.0199 -0.033,0.053 -0.033,0.0864 z m 2.329577,-1.2321 h 2.349371 v 0.27157 h -1.036097 v 2.08663 h -0.270577 v -2.08663 h -1.042697 z m 2.976311,0 h 1.570647 c 0.105602,0 0.197982,0.0397 0.277173,0.11926 0.0726,0.0727 0.112207,0.16556 0.112207,0.27822 v 1.56992 c 0,0.10602 -0.03963,0.19869 -0.112207,0.2782 -0.0792,0.0727 -0.171582,0.11255 -0.277173,0.11255 h -1.570647 c -0.105584,0 -0.197979,-0.0397 -0.277171,-0.11255 -0.0726,-0.0797 -0.112205,-0.17229 -0.112205,-0.2782 v -1.56992 c 0,-0.11254 0.0396,-0.20535 0.112205,-0.27822 0.07921,-0.0797 0.171583,-0.11926 0.277171,-0.11926 z m 0.0069,2.09322 h 1.55745 c 0.03963,0 0.06599,-0.012 0.09238,-0.0398 0.02639,-0.0265 0.03963,-0.053 0.03963,-0.0926 v -1.56326 c 0,-0.033 -0.01325,-0.0662 -0.03963,-0.086 -0.02639,-0.0265 -0.0528,-0.0398 -0.09238,-0.0398 h -1.55745 c -0.03963,0 -0.06599,0.012 -0.09238,0.0398 -0.02639,0.0199 -0.03963,0.053 -0.03963,0.086 v 1.56326 c 0,0.0398 0.01325,0.0662 0.03963,0.0926 0.02639,0.0265 0.0528,0.0398 0.09238,0.0398 z m 4.652551,-1.69576 v 0.68889 c 0,0.11256 -0.03963,0.20535 -0.112189,0.27819 -0.07921,0.0797 -0.171583,0.11927 -0.277174,0.11927 h -0.363007 l 0.739129,0.8744 h -0.349917 l -0.73253,-0.87438 h -0.857914 c -0.0198,0 -0.05938,-0.008 -0.125395,-0.012 v 0.88764 h -0.270569 v -2.35204 h 1.960009 c 0.105585,0 0.197981,0.0398 0.277172,0.11256 0.0726,0.0796 0.112204,0.17228 0.112204,0.27822 z m -1.953409,0.81475 h 1.564047 c 0.03301,0 0.05939,-0.012 0.08579,-0.033 0.02639,-0.0264 0.033,-0.053 0.033,-0.086 v -0.68891 c 0,-0.0397 -0.0069,-0.0662 -0.033,-0.0926 -0.02639,-0.0265 -0.0528,-0.0398 -0.08579,-0.0398 h -1.564096 c -0.033,0 -0.066,0.012 -0.08579,0.0398 -0.02639,0.0265 -0.03963,0.053 -0.03963,0.0926 v 0.68891 c 0,0.033 0.01324,0.0596 0.03963,0.086 0.0198,0.0199 0.0528,0.033 0.08579,0.033 z"
       style="fill:#d3d3d3;fill-opacity:1;fill-rule:nonzero;stroke:none;stroke-width:0.1000004;stroke-linecap:butt;stroke-linejoin:miter;stroke-miterlimit:4;stroke-dasharray:none;stroke-opacity:1"
       inkscape:connector-curvature="0" />
  </g>
</svg>
