<?xml version="1.0" encoding="UTF-8" standalone="no"?>
<!-- Created with Inkscape (http://www.inkscape.org/) -->

<svg
   xmlns:dc="http://purl.org/dc/elements/1.1/"
   xmlns:cc="http://creativecommons.org/ns#"
   xmlns:rdf="http://www.w3.org/1999/02/22-rdf-syntax-ns#"
   xmlns:svg="http://www.w3.org/2000/svg"
   xmlns="http://www.w3.org/2000/svg"
   xmlns:sodipodi="http://sodipodi.sourceforge.net/DTD/sodipodi-0.dtd"
   xmlns:inkscape="http://www.inkscape.org/namespaces/inkscape"
   width="138.74629"
   height="15.729724"
   viewBox="0 0 36.710109 4.1618223"
   version="1.1"
   id="svg5116"
   inkscape:version="0.92.2 (5c3e80d, 2017-08-06)"
   sodipodi:docname="ialogoactuator.svg">
  <defs
     id="defs5110" />
  <sodipodi:namedview
     id="base"
     pagecolor="#ffffff"
     bordercolor="#666666"
     borderopacity="1.0"
     inkscape:pageopacity="0.0"
     inkscape:pageshadow="2"
     inkscape:zoom="4.4165884"
     inkscape:cx="73.179423"
     inkscape:cy="18.954142"
     inkscape:document-units="mm"
     inkscape:current-layer="layer1"
     showgrid="false"
     fit-margin-top="0"
     fit-margin-left="0"
     fit-margin-right="0"
     fit-margin-bottom="0"
     inkscape:window-width="1366"
     inkscape:window-height="745"
     inkscape:window-x="-8"
     inkscape:window-y="-8"
     inkscape:window-maximized="1"
     units="px" />
  <metadata
     id="metadata5113">
    <rdf:RDF>
      <cc:Work
         rdf:about="">
        <dc:format>image/svg+xml</dc:format>
        <dc:type
           rdf:resource="http://purl.org/dc/dcmitype/StillImage" />
        <dc:title></dc:title>
      </cc:Work>
    </rdf:RDF>
  </metadata>
  <g
     inkscape:label="Layer 1"
     inkscape:groupmode="layer"
     id="layer1"
     transform="translate(-49.089401,-129.85632)">
    <path
       id="path830-5"
       d="m 49.776334,129.85627 h 2.759357 c 0.197929,0 0.360901,0.07 0.489001,0.21066 0.139725,0.12846 0.209548,0.29224 0.209548,0.49087 v 3.45925 h -0.477346 v -1.51933 h -3.201781 v 1.51933 h -0.465712 v -3.45925 c 0,-0.19876 0.0582,-0.36243 0.19799,-0.49087 0.128093,-0.14058 0.291084,-0.21066 0.489,-0.21066 z m -0.221231,2.17377 h 3.201783 v -1.47255 c 0,-0.0581 -0.02338,-0.117 -0.06985,-0.15234 -0.03473,-0.0471 -0.09315,-0.0699 -0.151358,-0.0699 h -2.75935 c -0.05819,0 -0.104742,0.0224 -0.151342,0.0699 -0.04651,0.0336 -0.06985,0.0934 -0.06985,0.15234 z m 8.464341,-1.69463 h -3.446288 c -0.0582,0 -0.11643,0.0223 -0.151358,0.07 -0.04654,0.0336 -0.06985,0.0934 -0.06985,0.152 v 2.75804 c 0,0.07 0.02338,0.11663 0.06985,0.16346 0.03475,0.0471 0.09318,0.0703 0.151358,0.0703 h 3.446282 v 0.46752 h -3.446282 c -0.186339,0 -0.349281,-0.07 -0.488998,-0.19879 -0.139727,-0.14057 -0.209551,-0.30413 -0.209551,-0.49089 v -2.7697 c 0,-0.19879 0.06985,-0.36243 0.209551,-0.4909 0.139693,-0.14056 0.302669,-0.21 0.488998,-0.21 h 3.446282 z m 0.384196,-0.47914 h 4.144845 v 0.47914 h -1.839567 v 3.68135 h -0.46571 v -3.68135 H 58.40364 Z m 8.231483,3.45921 v -3.45921 h 0.465712 v 3.47094 c 0,0.18693 -0.0582,0.3505 -0.19796,0.4908 -0.12808,0.12847 -0.302672,0.19878 -0.489001,0.19878 h -2.759336 c -0.197992,0 -0.360958,-0.0703 -0.489002,-0.19878 -0.139759,-0.14056 -0.20955,-0.30413 -0.20955,-0.4908 v -3.47094 h 0.477363 v 3.45921 c 0,0.07 0.02338,0.11663 0.0582,0.16328 0.04654,0.047 0.104755,0.07 0.16304,0.07 h 2.759342 c 0.05819,0 0.104879,-0.0223 0.15134,-0.07 0.04658,-0.0471 0.06997,-0.0931 0.06997,-0.16328 z m 1.804633,-3.45921 h 2.759358 c 0.186304,0 0.349281,0.07 0.488996,0.21066 0.139761,0.12846 0.197928,0.29224 0.197928,0.49087 v 3.45925 H 71.42034 v -1.51933 h -3.201774 v 1.51933 h -0.477368 v -3.45925 c 0,-0.19876 0.06983,-0.36243 0.19796,-0.49087 0.139761,-0.14058 0.30267,-0.21066 0.50063,-0.21066 z m -0.221234,2.17377 H 71.4203 v -1.47255 c 0,-0.0581 -0.02338,-0.117 -0.06985,-0.15234 -0.04658,-0.0471 -0.09318,-0.0699 -0.151358,-0.0699 h -2.759347 c -0.0582,0 -0.11643,0.0224 -0.163006,0.0699 -0.03475,0.0336 -0.05819,0.0934 -0.05819,0.15234 z m 4.109915,-2.17377 h 4.144843 v 0.47914 h -1.827909 v 3.68135 h -0.477362 v -3.68135 h -1.839564 z m 5.250915,0 h 2.770997 c 0.186338,0 0.349278,0.07 0.488995,0.21066 0.128091,0.12846 0.197961,0.29224 0.197961,0.49087 v 2.76973 c 0,0.18724 -0.06992,0.35044 -0.197961,0.49087 -0.139727,0.12848 -0.302669,0.19878 -0.488995,0.19878 h -2.770997 c -0.186272,0 -0.349281,-0.07 -0.489001,-0.19878 -0.128092,-0.14056 -0.197928,-0.30412 -0.197928,-0.49087 v -2.76973 c 0,-0.19876 0.06982,-0.36243 0.197928,-0.49087 0.139761,-0.14058 0.302671,-0.21066 0.489001,-0.21066 z m 0.01196,3.69303 h 2.747706 c 0.06985,0 0.11643,-0.0223 0.163006,-0.07 0.04659,-0.0471 0.06995,-0.0935 0.06995,-0.16345 v -2.758 c 0,-0.0581 -0.02336,-0.11663 -0.06995,-0.15199 -0.04654,-0.0471 -0.09318,-0.0702 -0.163006,-0.0702 h -2.74775 c -0.06985,0 -0.11643,0.0223 -0.163007,0.0702 -0.04654,0.0333 -0.06985,0.0935 -0.06985,0.15199 v 2.758 c 0,0.07 0.02338,0.11663 0.06985,0.16345 0.04658,0.047 0.09318,0.07 0.163007,0.07 z m 8.208196,-2.99181 v 1.21538 c 0,0.19879 -0.06992,0.36244 -0.197958,0.4908 -0.139761,0.14058 -0.302738,0.21065 -0.489001,0.21065 H 84.47227 l 1.30399,1.54266 h -0.617132 l -1.292353,-1.5426 H 82.35322 c -0.03475,0 -0.104755,-0.0153 -0.221231,-0.0223 v 1.56603 h -0.477386 v -4.14957 h 3.457941 c 0.186307,0 0.349286,0.07 0.489001,0.19878 0.128094,0.14057 0.197929,0.30413 0.197929,0.4908 z m -3.446279,1.43737 h 2.759352 c 0.0582,0 0.104855,-0.0223 0.151359,-0.0581 0.04659,-0.0465 0.0582,-0.0931 0.0582,-0.15201 v -1.2154 c 0,-0.0699 -0.01196,-0.11663 -0.0582,-0.16328 -0.04658,-0.0471 -0.09318,-0.07 -0.151359,-0.07 h -2.759383 c -0.0582,0 -0.116455,0.0224 -0.15134,0.07 -0.04658,0.047 -0.06989,0.0934 -0.06989,0.16328 v 1.2154 c 0,0.0581 0.02336,0.10467 0.06989,0.15201 0.03475,0.0334 0.09315,0.0581 0.151339,0.0581 z"
       style="display:inline;opacity:1;fill:#000000;fill-opacity:1;fill-rule:nonzero;stroke:none;stroke-width:0.32011732;stroke-linecap:butt;stroke-linejoin:miter;stroke-miterlimit:4;stroke-dasharray:none;stroke-opacity:1"
       inkscape:connector-curvature="0" />
  </g>
</svg>
