<?xml version="1.0" encoding="UTF-8" standalone="no"?>
<!-- Created with Inkscape (http://www.inkscape.org/) -->

<svg
   xmlns:dc="http://purl.org/dc/elements/1.1/"
   xmlns:cc="http://creativecommons.org/ns#"
   xmlns:rdf="http://www.w3.org/1999/02/22-rdf-syntax-ns#"
   xmlns:svg="http://www.w3.org/2000/svg"
   xmlns="http://www.w3.org/2000/svg"
   xmlns:sodipodi="http://sodipodi.sourceforge.net/DTD/sodipodi-0.dtd"
   xmlns:inkscape="http://www.inkscape.org/namespaces/inkscape"
   width="81.300003"
   height="81.451523"
   viewBox="0 0 21.510717 21.550714"
   version="1.1"
   id="svg5116"
   inkscape:version="0.92.2 (5c3e80d, 2017-08-06)"
   sodipodi:docname="ialogo.svg">
  <defs
     id="defs5110" />
  <sodipodi:namedview
     id="base"
     pagecolor="#ffffff"
     bordercolor="#666666"
     borderopacity="1.0"
     inkscape:pageopacity="0.0"
     inkscape:pageshadow="2"
     inkscape:zoom="4.4165884"
     inkscape:cx="47.731358"
     inkscape:cy="38.71645"
     inkscape:document-units="mm"
     inkscape:current-layer="layer1"
     showgrid="false"
     fit-margin-top="0"
     fit-margin-left="0"
     fit-margin-right="0"
     fit-margin-bottom="0"
     inkscape:window-width="1366"
     inkscape:window-height="745"
     inkscape:window-x="-8"
     inkscape:window-y="-8"
     inkscape:window-maximized="1"
     units="px" />
  <metadata
     id="metadata5113">
    <rdf:RDF>
      <cc:Work
         rdf:about="">
        <dc:format>image/svg+xml</dc:format>
        <dc:type
           rdf:resource="http://purl.org/dc/dcmitype/StillImage" />
        <dc:title></dc:title>
      </cc:Work>
    </rdf:RDF>
  </metadata>
  <g
     inkscape:label="Layer 1"
     inkscape:groupmode="layer"
     id="layer1"
     transform="translate(-62.381526,-119.46352)">
    <g
       aria-label="i"
       transform="matrix(1.4175681,0,0,1.4169257,-25.603979,-50.171207)"
       style="font-style:normal;font-variant:normal;font-weight:400;font-size:15.5569849px;line-height:125%;font-family:Orbitron;text-align:start;letter-spacing:0px;word-spacing:0px;text-anchor:start;fill:#000000;fill-opacity:1;stroke:none;stroke-width:0.18668896"
       id="text822">
      <path
         d="m 62.467418,131.69913 v -9.02305 h 1.275673 v 9.02305 z m 0,-11.97888 h 1.275673 v 1.27567 h -1.275673 z"
         style="font-style:normal;font-variant:normal;font-weight:400;font-size:15.5569849px;font-family:Orbitron;fill:#363535;stroke-width:0.18668896"
         id="path2075"
         inkscape:connector-curvature="0" />
    </g>
    <g
       aria-label="A "
       transform="matrix(1.4175681,0,0,1.4169257,-25.603979,-50.171207)"
       style="font-style:normal;font-variant:normal;font-weight:400;font-size:15.5569849px;line-height:125%;font-family:Orbitron;text-align:start;letter-spacing:0px;word-spacing:0px;text-anchor:start;fill:#000000;fill-opacity:1;stroke:none;stroke-width:0.18668896"
       id="text828">
      <path
         d="m 67.604791,120.4981 h 7.467353 q 0.777849,0 1.322343,0.54449 0.544495,0.5445 0.544495,1.32235 v 9.33419 h -1.260116 v -4.09149 h -8.680798 v 4.09149 h -1.260115 v -9.33419 q 0,-0.77785 0.544494,-1.32235 0.544495,-0.54449 1.322344,-0.54449 z m -0.606723,5.84942 h 8.680798 v -3.98258 q 0,-0.24892 -0.186684,-0.42004 -0.171127,-0.18669 -0.420038,-0.18669 h -7.467353 q -0.248912,0 -0.435596,0.18669 -0.171127,0.17112 -0.171127,0.42004 z"
         style="font-style:normal;font-variant:normal;font-weight:400;font-size:15.5569849px;font-family:Orbitron;fill:#4a99d9;stroke-width:0.18668896"
         id="path2078"
         inkscape:connector-curvature="0" />
    </g>
    <path
       id="path830"
       d="m 63.125862,137.67354 h 1.546036 c 0.110896,0 0.202223,0.0393 0.273983,0.11789 0.0783,0.0719 0.117405,0.16365 0.117405,0.27502 v 1.93819 h -0.267459 v -0.85126 h -1.793925 v 0.85126 h -0.260934 v -1.93819 c 0,-0.11125 0.03262,-0.20299 0.110912,-0.27502 0.07176,-0.0788 0.16308,-0.11789 0.273979,-0.11789 z m -0.123952,1.21791 h 1.793925 v -0.82502 c 0,-0.0326 -0.0131,-0.0654 -0.03915,-0.0854 -0.01957,-0.0262 -0.05219,-0.0393 -0.0848,-0.0393 h -1.546029 c -0.03262,0 -0.05871,0.0119 -0.0848,0.0393 -0.02609,0.0197 -0.03915,0.0524 -0.03915,0.0854 z m 4.742486,-0.94946 h -1.930917 c -0.03262,0 -0.06523,0.0119 -0.08479,0.0393 -0.02609,0.0197 -0.03915,0.0524 -0.03915,0.085 v 1.54528 c 0,0.0393 0.01309,0.0654 0.03915,0.0915 0.01957,0.0261 0.05219,0.0393 0.08479,0.0393 h 1.930916 v 0.26193 h -1.930916 c -0.104386,0 -0.195701,-0.0393 -0.273982,-0.11126 -0.0783,-0.0787 -0.117406,-0.1703 -0.117406,-0.27501 v -1.55183 c 0,-0.11128 0.03917,-0.20299 0.117406,-0.27502 0.0783,-0.0788 0.169607,-0.11789 0.273982,-0.11789 h 1.930916 z m 0.215272,-0.26845 h 2.322315 v 0.26845 h -1.03069 v 2.0626 H 68.99036 v -2.0626 h -1.030692 z m 4.612017,1.93814 v -1.93814 h 0.260933 v 1.94471 c 0,0.10463 -0.03262,0.19642 -0.110913,0.27499 -0.07177,0.0719 -0.169607,0.11126 -0.27398,0.11126 h -1.546032 c -0.110912,0 -0.202225,-0.0393 -0.273982,-0.11126 -0.0783,-0.0789 -0.117424,-0.17029 -0.117424,-0.27499 v -1.94471 h 0.267465 v 1.93814 c 0,0.0393 0.01309,0.0654 0.03262,0.0915 0.02609,0.0262 0.05871,0.0393 0.09133,0.0393 h 1.546032 c 0.03262,0 0.05871,-0.0119 0.0848,-0.0393 0.02609,-0.0262 0.03917,-0.0524 0.03917,-0.0915 z m 1.011118,-1.93814 h 1.546038 c 0.104369,0 0.195701,0.0393 0.273983,0.11789 0.07829,0.0719 0.110895,0.16365 0.110895,0.27502 v 1.93819 h -0.260935 v -0.85126 h -1.793925 v 0.85126 h -0.267457 v -1.93819 c 0,-0.11125 0.03913,-0.20299 0.110896,-0.27502 0.0783,-0.0788 0.169607,-0.11789 0.280505,-0.11789 z m -0.123952,1.21791 h 1.793929 v -0.82502 c 0,-0.0326 -0.01309,-0.0654 -0.03917,-0.0854 -0.02609,-0.0262 -0.05219,-0.0393 -0.08479,-0.0393 h -1.546037 c -0.03262,0 -0.06523,0.0119 -0.09132,0.0393 -0.01957,0.0197 -0.03262,0.0524 -0.03262,0.0854 z m 2.302749,-1.21791 h 2.322315 v 0.26845 H 77.05975 v 2.0626 h -0.267461 v -2.0626 H 75.7616 Z m 2.942035,0 h 1.55256 c 0.104385,0 0.195702,0.0393 0.273981,0.11789 0.07176,0.0719 0.110914,0.16365 0.110914,0.27502 v 1.55184 c 0,0.1048 -0.03917,0.1964 -0.110914,0.27499 -0.07829,0.0719 -0.169606,0.11126 -0.273981,0.11126 h -1.55256 c -0.104368,0 -0.195699,-0.0393 -0.273979,-0.11126 -0.07176,-0.0788 -0.110913,-0.1703 -0.110913,-0.27499 v -1.55184 c 0,-0.11125 0.03914,-0.20299 0.110913,-0.27502 0.0783,-0.0788 0.169607,-0.11789 0.273979,-0.11789 z m 0.0068,2.06912 h 1.539514 c 0.03917,0 0.06523,-0.0119 0.09132,-0.0393 0.02609,-0.0262 0.03917,-0.0524 0.03917,-0.0915 v -1.54526 c 0,-0.0326 -0.0131,-0.0654 -0.03917,-0.085 -0.02609,-0.0262 -0.05219,-0.0393 -0.09132,-0.0393 h -1.539514 c -0.03917,0 -0.06523,0.0119 -0.09132,0.0393 -0.02609,0.0197 -0.03917,0.0524 -0.03917,0.085 v 1.54526 c 0,0.0393 0.0131,0.0654 0.03917,0.0915 0.02609,0.0262 0.05219,0.0393 0.09132,0.0393 z m 4.598972,-1.67623 v 0.68095 c 0,0.11127 -0.03917,0.20299 -0.110897,0.27499 -0.0783,0.0788 -0.169607,0.1179 -0.273982,0.1179 h -0.358827 l 0.730617,0.86433 h -0.345866 l -0.724094,-0.86431 h -0.848035 c -0.01957,0 -0.0587,-0.008 -0.12395,-0.0119 v 0.87742 h -0.267454 v -2.32495 h 1.937438 c 0.104369,0 0.195701,0.0393 0.27398,0.11126 0.07176,0.0787 0.110912,0.1703 0.110912,0.27502 z m -1.930914,0.80536 h 1.546036 c 0.03263,0 0.05871,-0.0119 0.0848,-0.0326 0.02609,-0.0261 0.03262,-0.0524 0.03262,-0.085 v -0.68097 c 0,-0.0393 -0.0068,-0.0654 -0.03262,-0.0915 -0.02609,-0.0262 -0.05219,-0.0393 -0.0848,-0.0393 h -1.546063 c -0.03262,0 -0.06524,0.0119 -0.0848,0.0393 -0.02609,0.0262 -0.03917,0.0524 -0.03917,0.0915 v 0.68097 c 0,0.0326 0.01309,0.0589 0.03917,0.085 0.01957,0.0197 0.05219,0.0326 0.0848,0.0326 z"
       style="fill:#363535;fill-opacity:1;fill-rule:nonzero;stroke:none;stroke-width:0.1000004;stroke-linecap:butt;stroke-linejoin:miter;stroke-miterlimit:4;stroke-dasharray:none;stroke-opacity:1"
       inkscape:connector-curvature="0" />
  </g>
</svg>
