<?xml version="1.0" encoding="UTF-8" standalone="no"?>
<!-- Created with Inkscape (http://www.inkscape.org/) -->

<svg
   xmlns:dc="http://purl.org/dc/elements/1.1/"
   xmlns:cc="http://creativecommons.org/ns#"
   xmlns:rdf="http://www.w3.org/1999/02/22-rdf-syntax-ns#"
   xmlns:svg="http://www.w3.org/2000/svg"
   xmlns="http://www.w3.org/2000/svg"
   xmlns:sodipodi="http://sodipodi.sourceforge.net/DTD/sodipodi-0.dtd"
   xmlns:inkscape="http://www.inkscape.org/namespaces/inkscape"
   width="8.4585724mm"
   height="8.4692669mm"
   viewBox="0 0 8.4585723 8.4692669"
   version="1.1"
   id="svg12175"
   inkscape:version="0.92.2 (5c3e80d, 2017-08-06)"
   sodipodi:docname="iamessedge.svg">
  <defs
     id="defs12169" />
  <sodipodi:namedview
     id="base"
     pagecolor="#ffffff"
     bordercolor="#666666"
     borderopacity="1.0"
     inkscape:pageopacity="0.0"
     inkscape:pageshadow="2"
     inkscape:zoom="6.51875"
     inkscape:cx="41.156433"
     inkscape:cy="4.4940109"
     inkscape:document-units="mm"
     inkscape:current-layer="layer1"
     showgrid="false"
     fit-margin-top="0"
     fit-margin-left="0"
     fit-margin-right="0"
     fit-margin-bottom="0"
     inkscape:window-width="1366"
     inkscape:window-height="745"
     inkscape:window-x="-8"
     inkscape:window-y="-8"
     inkscape:window-maximized="1" />
  <metadata
     id="metadata12172">
    <rdf:RDF>
      <cc:Work
         rdf:about="">
        <dc:format>image/svg+xml</dc:format>
        <dc:type
           rdf:resource="http://purl.org/dc/dcmitype/StillImage" />
        <dc:title></dc:title>
      </cc:Work>
    </rdf:RDF>
  </metadata>
  <g
     inkscape:label="Layer 1"
     inkscape:groupmode="layer"
     id="layer1"
     transform="translate(-49.493665,-143.90707)">
    <text
       xml:space="preserve"
       style="font-style:normal;font-variant:normal;font-weight:normal;font-stretch:normal;font-size:22.57777786px;line-height:1.25;font-family:Orbitron;-inkscape-font-specification:Orbitron;letter-spacing:0px;word-spacing:0px;fill:#000000;fill-opacity:1;stroke:none;stroke-width:0.26458332"
       x="38.858978"
       y="150.58571"
       id="text3921"><tspan
         sodipodi:role="line"
         id="tspan3919"
         x="38.858978"
         y="170.34126"
         style="stroke-width:0.26458332" /></text>
    <text
       xml:space="preserve"
       style="font-style:normal;font-variant:normal;font-weight:normal;font-stretch:normal;font-size:22.57777786px;line-height:1.25;font-family:Orbitron;-inkscape-font-specification:Orbitron;letter-spacing:0px;word-spacing:0px;fill:#000000;fill-opacity:1;stroke:none;stroke-width:0.26458332"
       x="101.32398"
       y="156.95802"
       id="text3931"><tspan
         sodipodi:role="line"
         id="tspan3929"
         x="101.32398"
         y="176.71358"
         style="stroke-width:0.26458332" /></text>
    <polygon
       transform="matrix(0.00364337,0,0,0.00364281,25.597319,129.82141)"
       style="clip-rule:evenodd;fill:#000000;fill-opacity:1;fill-rule:evenodd;stroke-width:1.62913418;image-rendering:optimizeQuality;shape-rendering:geometricPrecision;text-rendering:geometricPrecision"
       id="polygon826"
       points="7078.14,5359.4 7085.19,5369.28 7086.6,5359.4 "
       class="fil1" />
    <g
       aria-label="..."
       style="font-style:normal;font-weight:normal;font-size:9.61668587px;line-height:1.25;font-family:sans-serif;letter-spacing:0px;word-spacing:0px;fill:#000000;fill-opacity:1;stroke:none;stroke-width:0.40069526;stroke-opacity:1"
       id="text23038"
       transform="matrix(0.59350896,0,0,0.59350896,20.4612,64.557688)">
      <path
         d="m 53.927253,141.36479 q -0.216,0 -0.370957,-0.15495 -0.15026,-0.15496 -0.15026,-0.37096 0,-0.216 0.15026,-0.37095 0.154957,-0.15966 0.370957,-0.15966 0.220695,0 0.375651,0.15966 0.154957,0.15495 0.154957,0.37095 0,0.216 -0.154957,0.37096 -0.154956,0.15495 -0.375651,0.15495 z"
         style="font-style:normal;font-variant:normal;font-weight:normal;font-stretch:normal;font-family:'Segoe UI';-inkscape-font-specification:'Segoe UI';fill:#000000;fill-opacity:1;stroke:none;stroke-width:0.40069526;stroke-opacity:1"
         id="path23040"
         inkscape:connector-curvature="0" />
      <path
         d="m 56.01212,141.36479 q -0.216,0 -0.370956,-0.15495 -0.150261,-0.15496 -0.150261,-0.37096 0,-0.216 0.150261,-0.37095 0.154956,-0.15966 0.370956,-0.15966 0.220695,0 0.375652,0.15966 0.154956,0.15495 0.154956,0.37095 0,0.216 -0.154956,0.37096 -0.154957,0.15495 -0.375652,0.15495 z"
         style="font-style:normal;font-variant:normal;font-weight:normal;font-stretch:normal;font-family:'Segoe UI';-inkscape-font-specification:'Segoe UI';fill:#000000;fill-opacity:1;stroke:none;stroke-width:0.40069526;stroke-opacity:1"
         id="path23042"
         inkscape:connector-curvature="0" />
      <path
         d="m 58.096987,141.36479 q -0.215999,0 -0.370956,-0.15495 -0.15026,-0.15496 -0.15026,-0.37096 0,-0.216 0.15026,-0.37095 0.154957,-0.15966 0.370956,-0.15966 0.220696,0 0.375652,0.15966 0.154957,0.15495 0.154957,0.37095 0,0.216 -0.154957,0.37096 -0.154956,0.15495 -0.375652,0.15495 z"
         style="font-style:normal;font-variant:normal;font-weight:normal;font-stretch:normal;font-family:'Segoe UI';-inkscape-font-specification:'Segoe UI';fill:#000000;fill-opacity:1;stroke:none;stroke-width:0.40069526;stroke-opacity:1"
         id="path23044"
         inkscape:connector-curvature="0" />
    </g>
    <path
       inkscape:connector-curvature="0"
       style="fill:none;fill-rule:evenodd;stroke:#00060c;stroke-width:0.3249473;stroke-miterlimit:4;stroke-dasharray:none;stroke-opacity:1"
       id="path2409"
       d="m 49.656139,148.14168 c 0,2.2942 1.678553,4.07218 3.945572,4.07218 1.185868,0 2.210518,-0.48668 2.918447,-1.279 0.05973,-0.0664 0.142396,-0.1066 0.231615,-0.10979 l 0.723458,-0.0221 c 0.230793,-0.008 0.380564,-0.24579 0.28808,-0.45721 l -0.35599,-0.80788 a 0.32519821,0.32524524 0 0 1 -0.01633,-0.21713 c 0.102316,-0.37117 0.156319,-0.76692 0.156319,-1.17904 0,-2.29419 -1.678558,-4.07217 -3.945564,-4.07217 -2.266999,0 -3.945557,1.77798 -3.945557,4.07217 z" />
  </g>
</svg>
